<svg width="500" height="500" viewBox="0 0 500 500" fill="none" xmlns="http://www.w3.org/2000/svg">
<path d="M451.5 480.331H308.885H318.765L408.965 479.286C425.64 477.836 437.39 461.481 431.055 445.996C429.96 443.321 431.105 442.576 429.75 439.996C415.57 413.296 390.985 391.546 363.125 378.911C363.815 378.781 364.51 378.686 365.22 378.591C360.032 375.993 354.689 373.717 349.22 371.776C346.32 370.741 343.385 369.806 340.455 368.986C326.05 364.926 306.585 366.781 300.455 382.731C295.3 396.121 302.145 412.296 315.02 418.161L338.145 427.001C337.95 426.711 337.775 426.421 337.595 426.116L357.705 433.801C358.104 434.08 358.409 434.475 358.577 434.932C358.745 435.39 358.77 435.887 358.648 436.359C358.525 436.831 358.262 437.254 357.892 437.571C357.523 437.889 357.065 438.086 356.58 438.136L307.74 443.471C300.7 444.181 291.885 447.126 286.695 451.971C282.91 455.471 279.72 460.236 279.75 466.266C276.558 466.506 273.385 466.952 270.25 467.601C265.465 468.631 260.595 470.406 260.25 473.321C259.57 479.171 267.885 480.361 273.125 480.361L239.965 480.231C243.525 480.231 243.965 480.201 246.325 477.851C248.685 475.501 251.325 473.691 251.325 470.131L251.615 458.721C251.615 456.371 252.175 454.471 249.825 454.471H228.825C229.68 454.494 230.524 454.271 231.255 453.827C231.987 453.384 232.575 452.74 232.95 451.971C232.966 451.953 232.977 451.93 232.98 451.906C234.03 449.956 234.27 447.151 234.075 444.496L234.32 443.626L234.95 441.306L248.29 433.456C248.39 433.398 248.487 433.334 248.58 433.266C255.54 429.011 256.41 421.406 254.025 414.606C253.975 414.476 253.945 414.361 253.895 414.251C253.785 413.961 253.685 413.686 253.56 413.411C252.923 411.86 252.135 410.376 251.205 408.981C247.76 403.601 242.76 399.216 238.01 398.071C236.678 397.77 235.316 397.619 233.95 397.621C250.48 382.121 269.525 368.346 292.02 363.766C311.702 359.7 332.057 360.23 351.5 365.316C374.22 371.361 394.68 383.911 410.905 400.861C432.745 423.646 442.96 450.266 451.5 480.331Z" fill="#353642"/>
<path d="M229.301 411.825C228.517 413.369 227.234 414.602 225.661 415.325C224.317 416.001 222.895 416.505 221.426 416.825C219.006 417.23 218.15 415.7 216.605 414.2C215.724 413.349 214.711 412.647 213.605 412.12C212.942 411.795 212.216 411.62 211.478 411.609C210.739 411.598 210.008 411.75 209.336 412.055C208.881 412.258 208.494 412.589 208.222 413.006C207.951 413.424 207.806 413.912 207.805 414.41C207.905 416.245 210.436 417.695 211.866 418.455C213.733 419.337 215.673 420.053 217.665 420.595C222.55 422.095 214.416 425.22 212.706 425.415C209.048 425.911 205.336 425.823 201.706 425.155C202.748 427.484 203.547 429.913 204.09 432.405C204.655 434.79 205.316 437.66 204.851 440.06C204.286 442.88 202.381 444.975 200.031 446.395L190.896 408.285C194.264 406.681 197.928 405.79 201.657 405.667C205.386 405.545 209.1 406.195 212.566 407.575C213.722 408.002 214.975 408.087 216.178 407.821C217.381 407.555 218.482 406.949 219.351 406.075L220.286 405.17C221.588 404.887 222.945 404.995 224.186 405.48C226.401 406.315 230.501 409 229.301 411.825Z" fill="#3FBDF1"/>
<path d="M238.68 454.439H200.96C200.579 457.997 198.895 461.289 196.233 463.681C193.571 466.072 190.119 467.395 186.54 467.394H59.7305C59.7385 470.824 61.1045 474.11 63.5295 476.535C65.9545 478.96 69.241 480.326 72.6705 480.334H238.67C242.1 480.322 245.386 478.956 247.812 476.532C250.239 474.108 251.609 470.824 251.625 467.394V458.694C251.625 457.566 251.177 456.483 250.379 455.685C249.581 454.887 248.499 454.439 247.37 454.439H238.68Z" stroke="black" stroke-width="4.83" stroke-miterlimit="10"/>
<path d="M180.43 369.85C181.545 371.385 182.345 373.125 182.785 374.97L200.655 449.47C201.05 451.087 201.153 452.762 200.96 454.415C200.579 457.974 198.895 461.265 196.233 463.657C193.571 466.048 190.119 467.371 186.54 467.37H57.3753C54.1143 467.368 50.9483 466.269 48.3881 464.249C45.8276 462.229 44.0215 459.406 43.2603 456.235L25.4103 381.735C24.8948 379.601 24.8706 377.378 25.3396 375.233C25.8085 373.088 26.7585 371.078 28.1177 369.354C29.477 367.629 31.21 366.236 33.1861 365.28C35.1622 364.323 37.3298 363.827 39.5253 363.83H168.67C170.792 363.827 172.888 364.292 174.809 365.192C176.73 366.091 178.429 367.404 179.785 369.035L180.43 369.85Z" stroke="black" stroke-width="4.83" stroke-miterlimit="10"/>
<path d="M117.767 436.027C125.122 433.708 128.972 425.126 126.366 416.859C123.759 408.592 115.683 403.771 108.327 406.09C100.972 408.409 97.1219 416.991 99.7284 425.258C102.335 433.525 110.411 438.346 117.767 436.027Z" fill="#D7E8F0"/>
<path d="M365.926 378.155C354.531 380.06 345.771 385.27 339.891 396.055C334.626 405.705 334.011 417.48 339.626 427.055L316.701 418.265C303.426 412.185 298.756 398.675 304.076 384.8C310.401 368.27 330.471 366.35 345.326 370.56C348.351 371.41 351.371 372.38 354.361 373.45C358.267 374.85 362.122 376.418 365.926 378.155Z" fill="#353642"/>
<path d="M98.9404 363.841C108.035 352.088 120.577 343.473 134.81 339.201C132.914 334.108 131.41 328.878 130.31 323.556C118.5 266.116 155.435 209.961 212.86 198.116C270.285 186.271 326.46 223.191 338.3 280.616C339.624 287.051 340.36 293.593 340.5 300.161C344.603 298.705 348.801 297.536 353.065 296.661C403.25 286.286 452.35 318.576 462.71 368.771C465.634 382.884 465.225 397.485 461.517 411.413C457.808 425.34 450.901 438.211 441.345 449.001" stroke="#9F9F9F" stroke-width="4.83" stroke-miterlimit="10"/>
<path d="M224.115 454.446H227.66C228.679 454.471 229.69 454.257 230.613 453.824C231.535 453.39 232.344 452.747 232.975 451.946C232.992 451.927 233.004 451.905 233.01 451.881C234.282 450.142 234.861 447.993 234.635 445.851L234.345 443.596L234.105 441.776L234.975 441.276L248.605 433.236L249.525 432.706C256.18 428.791 256.66 421.491 254.05 414.576C254.005 414.451 253.97 414.336 253.925 414.221C253.81 413.931 253.695 413.661 253.585 413.386C252.918 411.85 252.13 410.369 251.23 408.956C247.785 403.571 242.79 399.191 238.035 398.046C236.703 397.742 235.341 397.591 233.975 397.596C231.125 397.596 227.975 398.141 226.32 399.786C244 382.391 264.655 366.066 289.5 361.001C309.191 356.942 329.553 357.482 349 362.581C371.72 368.626 392.2 381.191 408.425 398.141C409.28 399.031 410.115 399.931 410.925 400.851C431.26 423.201 444.23 451.431 452.425 480.321" stroke="black" stroke-width="4.83" stroke-miterlimit="10"/>
<path d="M230.351 480.336H475.001" stroke="black" stroke-width="4.83" stroke-miterlimit="10"/>
<path d="M291.94 480.33H319.7" stroke="black" stroke-width="3.22" stroke-miterlimit="10"/>
<path d="M315.145 418.029C302.265 412.164 295.426 395.989 300.576 382.604C306.716 366.649 326.181 364.794 340.576 368.854C343.516 369.678 346.437 370.608 349.34 371.644C381.706 383.144 411.115 407.019 427.175 437.269C428.53 439.829 429.61 442.459 430.705 445.139C432.181 448.74 432.79 452.637 432.482 456.516C432.174 460.395 430.959 464.147 428.934 467.47C426.908 470.792 424.13 473.592 420.822 475.643C417.515 477.693 413.772 478.937 409.895 479.274L319.701 480.329H291.941C289.488 480.33 287.097 479.562 285.102 478.135C283.108 476.707 281.611 474.691 280.821 472.369C277.776 463.369 281.71 456.579 286.685 451.954C291.875 447.134 298.645 444.379 305.685 443.669L356.356 438.549C356.841 438.5 357.299 438.303 357.67 437.985C358.04 437.668 358.305 437.245 358.428 436.773C358.551 436.301 358.528 435.803 358.36 435.345C358.193 434.887 357.889 434.49 357.49 434.209L315.145 418.029Z" stroke="black" stroke-width="4.83" stroke-miterlimit="10"/>
<path d="M300.04 453.5C295.415 456.16 290.66 460.325 289.07 465.6C287.24 471.675 291.535 477.195 296.415 480.355" stroke="black" stroke-width="4.83" stroke-miterlimit="10"/>
<path d="M305 460.471C300.685 464.576 296.945 469.781 299.44 475.971C300.154 477.669 301.265 479.172 302.68 480.351" stroke="black" stroke-width="4.83" stroke-miterlimit="10"/>
<path d="M313.465 468.5C313.465 468.5 303.53 475.885 309.84 480.315" stroke="black" stroke-width="4.83" stroke-miterlimit="10"/>
<path d="M287.965 479.625L288.14 480.335H272.11C266.87 480.335 259.61 479.53 260.295 473.68C260.98 467.83 279.745 466.235 279.745 466.235" stroke="black" stroke-width="4.83" stroke-miterlimit="10"/>
<path d="M259.211 295.67L225.096 300.775L231.041 304.965L242.161 313.87C243.901 315.095 243.466 317.985 244.431 319.74C244.797 322.389 244.381 325.087 243.233 327.502C242.086 329.917 240.257 331.944 237.972 333.333C235.687 334.723 233.045 335.413 230.373 335.32C227.701 335.227 225.114 334.354 222.931 332.81L196.106 313.94C193.145 311.895 190.768 309.114 189.211 305.87C187.016 294.945 193.751 282.795 206.711 280.87L244.001 275.27L238.501 271L221.566 257.82C220.115 256.697 218.905 255.294 218.006 253.695C217.629 250.988 218.07 248.23 219.271 245.774C220.472 243.319 222.379 241.279 224.748 239.915C227.117 238.551 229.839 237.925 232.565 238.119C235.292 238.312 237.898 239.315 240.051 241L270.261 264.5C272.731 266.397 274.728 268.841 276.096 271.64C278.156 282.2 271.566 293.815 259.211 295.67Z" fill="#3FBDF1"/>
<path d="M234.11 441.77C234.11 441.77 233.07 432.62 229.545 429.395" stroke="black" stroke-width="4.83" stroke-miterlimit="10"/>
<path d="M190.545 408.926C193.949 407.254 197.665 406.315 201.455 406.168C205.244 406.022 209.022 406.672 212.545 408.076C213.702 408.503 214.958 408.589 216.162 408.323C217.367 408.057 218.47 407.451 219.34 406.576L226.305 399.756" stroke="black" stroke-width="4.83" stroke-miterlimit="10"/>
<path d="M212.686 447.794L218.501 450.409C218.63 450.463 218.769 450.488 218.909 450.485C219.049 450.481 219.187 450.448 219.313 450.387C219.439 450.327 219.552 450.241 219.642 450.134C219.733 450.028 219.801 449.904 219.841 449.769L220.756 447.699" stroke="black" stroke-width="4.83" stroke-miterlimit="10"/>
<path d="M213.636 436.244C214.123 437.363 214.292 438.594 214.125 439.803C213.957 441.012 213.459 442.151 212.686 443.094" stroke="black" stroke-width="3.22" stroke-miterlimit="10"/>
<path d="M226.825 454.439C227.74 453.084 227.735 449.809 227.5 448.494C227.35 447.659 225.945 447.359 225.795 448.199C225.385 450.544 222.74 454.149 220.295 454.439" stroke="black" stroke-width="4.83" stroke-miterlimit="10"/>
<path d="M215.085 445.6C219.208 445.6 222.55 442.258 222.55 438.135C222.55 434.012 219.208 430.67 215.085 430.67C210.962 430.67 207.62 434.012 207.62 438.135C207.62 442.258 210.962 445.6 215.085 445.6Z" stroke="black" stroke-width="4.83" stroke-miterlimit="10"/>
<path d="M212.586 445.164L211.256 448.904C210.332 448.575 209.353 448.431 208.374 448.481C207.395 448.53 206.435 448.772 205.549 449.193C204.664 449.614 203.87 450.205 203.213 450.933C202.556 451.66 202.049 452.51 201.721 453.434" stroke="black" stroke-width="4.83" stroke-miterlimit="10"/>
<path opacity="0.53" d="M215.086 444.454C218.576 444.454 221.406 441.625 221.406 438.134C221.406 434.644 218.576 431.814 215.086 431.814C211.595 431.814 208.766 434.644 208.766 438.134C208.766 441.625 211.595 444.454 215.086 444.454Z" fill="white"/>
<path d="M200 446.886C202.35 445.466 204.25 443.386 204.815 440.556C205.285 438.151 204.625 435.286 204.06 432.901C203.517 430.408 202.718 427.979 201.675 425.651C205.305 426.317 209.018 426.402 212.675 425.905C214.38 425.715 222.52 422.606 217.635 421.091C215.643 420.55 213.704 419.832 211.84 418.945C210.4 418.2 207.875 416.75 207.785 414.91C207.779 414.413 207.918 413.925 208.184 413.505C208.45 413.086 208.833 412.752 209.285 412.546C209.958 412.242 210.69 412.091 211.428 412.104C212.166 412.117 212.893 412.294 213.555 412.621C214.664 413.142 215.678 413.845 216.555 414.701C218.105 416.201 218.95 417.7 221.38 417.315C222.847 416.999 224.267 416.495 225.605 415.815C227.181 415.094 228.468 413.86 229.255 412.315C230.465 409.5 226.355 406.816 224.125 406.011C222.886 405.524 221.531 405.412 220.23 405.69" stroke="black" stroke-width="4.83" stroke-miterlimit="10"/>
<path d="M259.21 295.67L225.095 300.775L231.04 304.965L238.73 310.365C240.239 311.387 241.53 312.7 242.527 314.227C243.523 315.753 244.206 317.463 244.534 319.256C244.862 321.05 244.83 322.89 244.44 324.671C244.049 326.452 243.307 328.137 242.258 329.628C241.209 331.119 239.873 332.386 238.329 333.355C236.784 334.324 235.063 334.975 233.264 335.272C231.465 335.568 229.625 335.503 227.852 335.08C226.078 334.657 224.407 333.886 222.935 332.81L196.11 313.94C193.149 311.895 190.772 309.114 189.215 305.87C183.51 294.025 190.18 278.25 205.085 276.025L234.67 271.595L238.5 271L221.565 257.82C220.143 256.713 218.953 255.337 218.063 253.771C217.173 252.204 216.6 250.477 216.377 248.689C216.154 246.902 216.286 245.087 216.764 243.35C217.242 241.613 218.058 239.987 219.165 238.565C220.271 237.143 221.647 235.953 223.214 235.063C224.781 234.173 226.507 233.6 228.295 233.377C230.083 233.154 231.898 233.286 233.635 233.764C235.372 234.242 236.998 235.058 238.42 236.165L268.63 259.665C272.497 262.606 275.146 266.866 276.075 271.635C278.155 282.2 271.565 293.815 259.21 295.67Z" stroke="black" stroke-width="4.83" stroke-miterlimit="10"/>
<path d="M184.331 353.665L184.001 344.95L180.136 348.91C179.48 349.58 178.585 349.962 177.648 349.974C176.711 349.985 175.807 349.624 175.136 348.97C174.466 348.314 174.083 347.419 174.072 346.482C174.061 345.545 174.422 344.641 175.076 343.97L182.001 336.9C182.714 336.169 183.627 335.664 184.624 335.447C185.622 335.23 186.662 335.31 187.614 335.678C188.567 336.046 189.391 336.685 189.984 337.516C190.577 338.347 190.913 339.334 190.951 340.355L191.276 349.245L194.126 346.03C194.434 345.681 194.808 345.396 195.226 345.193C195.644 344.989 196.099 344.869 196.563 344.841C197.028 344.813 197.493 344.878 197.933 345.03C198.373 345.183 198.778 345.42 199.126 345.73C199.474 346.038 199.759 346.412 199.963 346.83C200.167 347.248 200.286 347.702 200.315 348.167C200.343 348.631 200.279 349.096 200.128 349.536C199.976 349.976 199.739 350.382 199.431 350.73L193.816 357.065C193.099 357.882 192.154 358.465 191.101 358.738C190.049 359.011 188.939 358.96 187.916 358.593C186.893 358.227 186.004 357.56 185.364 356.681C184.725 355.802 184.365 354.751 184.331 353.665Z" fill="#D7E8F0"/>
<path d="M213.3 369.386L217.415 368.466L215.19 366.966C214.813 366.711 214.552 366.318 214.464 365.873C214.376 365.427 214.468 364.964 214.72 364.586C214.974 364.208 215.367 363.947 215.813 363.86C216.26 363.773 216.722 363.867 217.1 364.121L221.07 366.776C221.481 367.05 221.803 367.44 221.995 367.896C222.187 368.352 222.241 368.854 222.15 369.34C222.058 369.827 221.827 370.275 221.483 370.631C221.139 370.987 220.698 371.233 220.215 371.341L216 372.291L217.785 373.366C217.977 373.482 218.145 373.635 218.278 373.815C218.412 373.996 218.508 374.202 218.562 374.42C218.616 374.639 218.626 374.865 218.592 375.088C218.559 375.31 218.481 375.523 218.365 375.716C218.13 376.104 217.751 376.384 217.311 376.494C216.87 376.603 216.404 376.534 216.015 376.301L212.515 374.186C212.065 373.917 211.706 373.518 211.485 373.043C211.264 372.567 211.191 372.036 211.275 371.519C211.36 371.001 211.598 370.521 211.959 370.141C212.32 369.76 212.787 369.497 213.3 369.386Z" fill="#D7E8F0"/>
<path d="M202.895 393.42L203.23 390.67L201.815 391.72C201.696 391.809 201.562 391.873 201.418 391.909C201.275 391.945 201.126 391.953 200.98 391.932C200.833 391.91 200.693 391.86 200.566 391.784C200.439 391.709 200.328 391.609 200.24 391.49C200.063 391.25 199.987 390.95 200.03 390.655C200.073 390.36 200.231 390.094 200.47 389.915L202.97 388.04C203.23 387.846 203.542 387.733 203.866 387.714C204.19 387.695 204.513 387.772 204.794 387.935C205.075 388.098 205.302 388.34 205.447 388.63C205.592 388.921 205.649 389.248 205.61 389.57L205.27 392.38L206.325 391.51C206.439 391.416 206.571 391.346 206.712 391.302C206.854 391.259 207.002 391.245 207.149 391.259C207.297 391.273 207.44 391.317 207.57 391.386C207.7 391.456 207.816 391.551 207.91 391.665C208.004 391.779 208.074 391.911 208.117 392.052C208.161 392.194 208.175 392.343 208.161 392.49C208.147 392.637 208.103 392.78 208.034 392.91C207.964 393.041 207.869 393.156 207.755 393.25L205.675 394.96C205.409 395.172 205.086 395.3 204.747 395.328C204.408 395.357 204.068 395.284 203.77 395.119C203.473 394.954 203.231 394.705 203.075 394.402C202.919 394.1 202.856 393.758 202.895 393.42Z" fill="#D7E8F0"/>
<path d="M365.925 378.5L365.715 378.855C365.555 378.755 365.388 378.669 365.215 378.595L365.925 378.5Z" fill="#353642"/>
</svg>
