<svg width="400" height="400" viewBox="0 0 400 400" fill="none" xmlns="http://www.w3.org/2000/svg">
<path d="M35.2002 222.204C34.9202 218.644 34.7042 215.08 34.5322 211.524" stroke="black" stroke-width="4.05" stroke-miterlimit="10"/>
<path d="M237.656 350.257H136.048" stroke="#CCDDE2" stroke-width="4.05" stroke-miterlimit="10"/>
<path d="M267.32 95.7154C267.32 95.7154 297.264 81.5754 322.668 109.163C330.968 118.179 336.632 130.143 337.032 142.487C337.214 148.511 336.243 154.513 334.172 160.171C332.064 165.947 328.28 169.771 325.372 174.915C320.912 182.847 330.236 184.251 335.24 188.095C338.566 190.672 341.72 193.461 344.684 196.447C351.363 203.118 357.24 210.545 362.196 218.579C372.009 234.582 377.918 252.67 379.444 271.379C380.952 289.827 379.796 309.859 370.336 326.247C365.784 334.139 358.928 341.879 350.496 345.559C339.296 350.443 326.716 350.259 314.748 350.259H289.28" stroke="#CCDDE2" stroke-width="4.05" stroke-miterlimit="10"/>
<path d="M142.5 280.056C141.496 287.2 140 295.396 138.348 303.6L136.4 304.156C130.166 305.907 123.545 305.713 117.424 303.6L119.976 294.928L104.44 249.728C104.44 249.728 116.316 245.888 126.068 243.036L127.188 242.988C132.516 244.112 143.496 248.332 143.84 264.136C143.864 264.896 143.84 265.696 143.84 266.568C145.388 271.668 144.772 276.164 142.5 280.056Z" fill="#3FBDF1"/>
<path d="M105.932 108.001C105.779 107.611 105.479 107.297 105.097 107.126C104.715 106.954 104.281 106.94 103.888 107.085C103.668 107.151 103.465 107.264 103.292 107.417C102.676 107.917 102.536 108.793 102.516 109.625C102.46 111.525 102.352 113.429 102.212 115.321C102.212 115.449 102.192 115.593 102.192 115.721C102.104 117.245 102.168 119.093 101.52 120.421C101.479 120.522 101.408 120.608 101.316 120.669C101.1 120.769 100.872 120.553 100.732 120.357C100.332 119.773 99.9321 119.201 99.5321 118.605C99.2161 118.129 98.8601 117.613 98.3081 117.461C97.4881 117.233 96.7081 117.957 96.2561 118.693C94.7961 121.093 94.6561 125.025 96.9161 127.037C99.1761 129.049 94.1161 133.005 90.4921 134.669C89.8853 135.01 89.2497 135.296 88.5921 135.525C88.5601 135.525 89.9001 135.825 89.8681 135.837C87.0481 136.818 84.1105 137.422 81.1321 137.633C77.5961 137.869 74.1481 137.425 71.6401 135.889C71.7481 135.489 72.6041 132.689 72.6561 132.289C72.8401 130.893 72.9721 129.509 73.0561 128.105C73.2081 125.469 73.1961 122.829 73.0961 120.201C72.7321 110.745 74.4161 102.801 78.3201 101.589C78.6285 101.496 78.9241 101.366 79.2001 101.201C80.9601 100.229 81.9001 98.1767 81.0921 96.2407C81.0361 96.1087 80.9721 95.9807 80.9161 95.8407C80.8529 95.7027 80.7809 95.5691 80.7001 95.4407C88.3241 93.0727 93.5001 94.7167 98.7321 97.5807C99.7277 98.3763 100.664 99.2439 101.532 100.177C103.58 102.4 105.086 105.067 105.932 107.969V108.001Z" fill="#3FBDF1"/>
<path d="M289.2 198.916H263.2V136.772C263.2 136.772 258.4 190.768 245.248 221.36H164.724C174.216 215.328 181.828 206.216 186.896 196.408C188.896 192.528 192.096 186.768 197.416 188.28C198.68 188.636 200.54 188.864 201.48 187.708C201.805 187.264 201.989 186.733 202.008 186.184C202.464 180.52 196.592 175.752 191.752 174.248C186.912 172.744 181.256 173.448 177.404 176.964C174.628 179.504 172.888 182.876 170.856 186C169.637 187.851 168.191 189.543 166.552 191.036C168.64 178.356 170.5 166.236 170.768 161.776C175.86 157.756 179.6 151.2 180.928 145.4C182.388 139.064 183.676 132.868 185.944 126.936L204.508 127C205.207 127 205.878 126.722 206.372 126.228C206.867 125.733 207.144 125.063 207.144 124.364V93.5317C207.145 92.8389 206.872 92.1741 206.384 91.6821C205.896 91.1905 205.233 90.9121 204.54 90.9077L191.9 90.7997C196.494 89.8397 201.152 89.2181 205.836 88.9397C205.932 88.9397 206.02 88.9397 206.104 88.9397C209.188 88.7357 214.592 88.6477 217.704 88.6157C213.996 90.6157 211.704 94.8637 212.104 98.6157C212.175 99.4149 212.379 100.197 212.708 100.928C215.876 107.888 224.22 109.944 231.108 107.92C238.772 105.684 244.404 98.6357 244.068 90.5277C248.868 91.2317 253.62 92.1249 258.324 93.2077C265.472 94.8517 272.444 97.0677 278.096 101.9C283.024 106.096 287.2 111.5 289.132 117.608C297.428 143.724 294.876 172.868 289.2 198.916Z" fill="#2E2E2E"/>
<path d="M170.976 161.776C170.392 171.32 168.888 180.856 167.256 190.368" stroke="black" stroke-width="4.05" stroke-miterlimit="10"/>
<path d="M186.152 126.936C183.88 132.868 182.596 139.064 181.136 145.4C179.796 151.18 176.064 157.756 170.976 161.776C166.704 165.148 161.472 166.736 155.872 164.608C148.36 161.744 145.724 153.464 144.804 146.164C143.608 137.074 143.536 127.872 144.588 118.764C145.648 121.12 149.98 128.288 163.416 126.404C163.777 126.674 164.21 126.829 164.66 126.848L186.152 126.936Z" fill="#2E2E2E"/>
<path d="M178.608 106.429C181.736 105.629 183.64 108.637 183.176 110.925C182.42 114.657 177.052 116.125 173.856 116.193C171.296 116.245 165.056 115.569 162.512 115.273" stroke="black" stroke-width="4.05" stroke-miterlimit="10"/>
<path d="M161.46 108.277C165.33 109.395 169.428 109.463 173.332 108.473C176.616 107.629 180.496 106.073 182.216 102.949C183.22 101.133 182.42 98.2366 180.324 97.5966C177.904 96.8646 175.664 99.2726 173.472 99.8806C172.058 100.266 170.615 100.533 169.156 100.681C168.756 100.725 168.38 100.757 167.992 100.789C165.951 100.952 163.899 100.937 161.86 100.745C161.643 100.745 161.432 100.676 161.256 100.549C161.08 100.422 160.949 100.243 160.881 100.037C160.812 99.8314 160.811 99.609 160.876 99.4022C160.941 99.1954 161.07 99.0142 161.244 98.8846L161.612 98.6166" stroke="black" stroke-width="4.05" stroke-miterlimit="10"/>
<path d="M186.152 126.936C183.88 132.868 182.596 139.064 181.136 145.4C178.672 156.036 168.164 169.288 155.872 164.6C148.36 161.736 145.724 153.456 144.804 146.156C143.364 134.852 143.484 123.24 145.604 112.032C147.364 102.8 150.488 93.1036 159.472 88.5636L163.688 86.4556C164.694 85.9476 165.858 85.8532 166.932 86.1924C168.006 86.532 168.905 87.2784 169.436 88.2716C169.76 88.8892 169.931 89.5748 169.936 90.2716C169.94 90.3736 169.932 90.4756 169.912 90.5756" stroke="black" stroke-width="4.05" stroke-miterlimit="10"/>
<path d="M271.784 213.705C273.956 213.637 276.13 213.692 278.296 213.869C280.064 214.013 281.896 214.097 283.58 214.757C284.968 215.309 286.416 216.625 286.344 218.233C286.212 221.385 282.084 221.361 279.82 221.361" stroke="black" stroke-width="4.05" stroke-miterlimit="10"/>
<path opacity="0.54" d="M232.936 210.7L251.76 162.472C251.993 161.538 252.01 160.562 251.809 159.62C251.608 158.678 251.195 157.794 250.601 157.036C250.007 156.277 249.248 155.664 248.381 155.244C247.514 154.823 246.563 154.606 245.6 154.608H170.848C169.173 154.612 167.547 155.179 166.233 156.218C164.919 157.257 163.991 158.707 163.6 160.336L142.968 208.552C142.745 209.483 142.735 210.452 142.939 211.388C143.145 212.323 143.559 213.2 144.151 213.951C144.744 214.703 145.499 215.311 146.361 215.729C147.222 216.147 148.167 216.364 149.124 216.364H225.684C227.351 216.363 228.97 215.806 230.284 214.779C231.598 213.753 232.531 212.318 232.936 210.7Z" fill="white"/>
<path d="M232.936 210.7L251.76 162.472C251.993 161.538 252.01 160.562 251.809 159.62C251.608 158.678 251.195 157.794 250.601 157.036C250.007 156.277 249.248 155.664 248.381 155.244C247.514 154.823 246.563 154.606 245.6 154.608H170.848C169.173 154.612 167.547 155.179 166.233 156.218C164.919 157.257 163.991 158.707 163.6 160.336L142.968 208.552C142.745 209.483 142.735 210.452 142.939 211.388C143.145 212.323 143.559 213.2 144.151 213.951C144.744 214.703 145.499 215.311 146.361 215.729C147.222 216.147 148.167 216.364 149.124 216.364H225.684C227.351 216.363 228.97 215.806 230.284 214.779C231.598 213.753 232.531 212.318 232.936 210.7Z" fill="#3FBDF1"/>
<path d="M232.936 210.7L251.76 162.472C251.993 161.538 252.01 160.562 251.809 159.62C251.608 158.678 251.195 157.794 250.601 157.036C250.007 156.277 249.248 155.664 248.381 155.244C247.514 154.823 246.563 154.606 245.6 154.608H170.848C169.173 154.612 167.547 155.179 166.233 156.218C164.919 157.257 163.991 158.707 163.6 160.336L142.968 208.552C142.745 209.483 142.735 210.452 142.939 211.388C143.145 212.323 143.559 213.2 144.151 213.951C144.744 214.703 145.499 215.311 146.361 215.729C147.222 216.147 148.167 216.364 149.124 216.364H225.684C227.351 216.363 228.97 215.806 230.284 214.779C231.598 213.753 232.531 212.318 232.936 210.7Z" stroke="black" stroke-width="4.05" stroke-linecap="square" stroke-linejoin="round"/>
<path d="M230.18 208.748L247.548 164.256C247.763 163.395 247.779 162.496 247.595 161.628C247.411 160.759 247.031 159.944 246.484 159.245C245.938 158.546 245.24 157.98 244.442 157.591C243.644 157.202 242.768 157 241.88 157H172.9C171.352 157 169.848 157.52 168.632 158.479C167.415 159.438 166.557 160.778 166.196 162.284L147.2 206.768C146.995 207.626 146.988 208.52 147.178 209.382C147.367 210.243 147.75 211.051 148.296 211.744C148.843 212.436 149.539 212.996 150.333 213.382C151.127 213.767 151.998 213.967 152.88 213.968H223.492C225.03 213.969 226.523 213.456 227.735 212.51C228.947 211.564 229.808 210.24 230.18 208.748Z" fill="#3FBDF1"/>
<path d="M177.876 165.2C178.792 163.828 180.276 163.2 181.22 163.836C182.164 164.472 182.164 166.072 181.252 167.436C181.108 167.646 180.948 167.844 180.772 168.028L187.548 182.336C188.628 181.616 189.816 181.436 190.672 182.004C190.946 182.205 191.174 182.462 191.338 182.759C191.502 183.056 191.6 183.386 191.624 183.724L196.256 182.164L200.304 180.8L201.624 180.368C201.791 179.871 202.022 179.398 202.312 178.96C203.596 177.028 205.696 176.16 207.004 177.04C208.312 177.92 208.328 180.14 207.08 182.056L214.8 192.596C216.484 191.216 218.464 190.788 219.836 191.7C221.704 192.944 221.732 196.188 219.9 198.94C219.824 199.052 219.74 199.14 219.664 199.244L224.8 206.268L224.848 206.336C225.11 206.733 225.205 207.217 225.11 207.683C225.016 208.149 224.74 208.558 224.344 208.82C223.948 209.083 223.464 209.178 222.998 209.083C222.532 208.988 222.122 208.713 221.86 208.316L217.3 201.432C215.856 202.268 214.32 202.428 213.196 201.68C211.412 200.48 211.324 197.488 212.916 194.82L205.528 183.668C204.436 184.408 203.232 184.596 202.368 184.024C201.888 183.684 201.56 183.168 201.456 182.588L200.904 182.74L196.788 183.864L191.516 185.288C191.352 185.92 191.081 186.519 190.716 187.06C189.432 188.988 187.332 189.86 186.024 188.98C184.716 188.1 184.696 185.84 185.98 183.908C186.168 183.625 186.38 183.357 186.612 183.108L180.16 168.532C179.384 169.064 178.524 169.2 177.908 168.788C176.98 168.172 176.964 166.556 177.876 165.2Z" fill="#D7E8F0"/>
<path d="M226.96 165.967H236.96C237.417 165.967 237.864 165.833 238.247 165.583C238.63 165.333 238.932 164.978 239.116 164.559C239.171 164.433 239.201 164.297 239.204 164.159C239.203 163.887 239.094 163.625 238.901 163.432C238.707 163.24 238.445 163.131 238.172 163.131H227.544C228.044 163.967 227.792 165.139 226.96 165.967Z" fill="#D7E8F0"/>
<path d="M220.496 164.944C220.497 165.216 220.606 165.476 220.798 165.668C220.991 165.86 221.252 165.968 221.524 165.968H226.96C227.792 165.14 228.044 163.968 227.544 163.124H222.744C222.287 163.124 221.84 163.256 221.458 163.506C221.075 163.755 220.772 164.11 220.588 164.528C220.529 164.659 220.498 164.8 220.496 164.944Z" fill="#3FBDF1"/>
<path d="M222.996 165.969C223.025 166.024 223.059 166.076 223.096 166.125C223.808 167.101 225.356 167.193 226.556 166.317C226.699 166.212 226.832 166.095 226.956 165.969C227.788 165.141 228.04 163.969 227.54 163.125C227.514 163.07 227.482 163.017 227.444 162.969C226.736 161.989 225.188 161.905 223.988 162.773C223.846 162.88 223.713 162.998 223.588 163.125C222.756 163.957 222.504 165.121 222.996 165.969Z" fill="white"/>
<path d="M218 171.22C218.002 171.493 218.112 171.753 218.305 171.945C218.499 172.137 218.76 172.244 219.032 172.244H229.524C229.016 171.396 229.268 170.244 230.1 169.4H220.232C219.775 169.401 219.327 169.534 218.943 169.784C218.56 170.034 218.257 170.39 218.072 170.808C218.022 170.94 217.997 171.08 218 171.22Z" fill="#3FBDF1"/>
<path d="M229.508 172.244H234.444C234.901 172.244 235.347 172.112 235.729 171.863C236.112 171.615 236.415 171.261 236.6 170.844C236.657 170.718 236.688 170.582 236.692 170.444C236.693 170.309 236.667 170.175 236.615 170.05C236.563 169.925 236.488 169.812 236.392 169.716C236.297 169.62 236.183 169.545 236.058 169.493C235.933 169.442 235.799 169.416 235.664 169.416H230.084C229.252 170.232 229 171.396 229.508 172.244Z" fill="#D7E8F0"/>
<path d="M229.508 172.244C229.531 172.299 229.561 172.352 229.596 172.4C230.304 173.38 231.852 173.468 233.052 172.596C233.194 172.489 233.328 172.371 233.452 172.244C234.276 171.412 234.528 170.244 234.036 169.4C234.007 169.346 233.975 169.294 233.94 169.244C233.224 168.268 231.676 168.18 230.476 169.056C230.334 169.16 230.2 169.275 230.076 169.4C229.252 170.232 229 171.396 229.508 172.244Z" fill="white"/>
<path d="M226 178.476H232.28C232.737 178.475 233.184 178.343 233.568 178.093C233.951 177.845 234.254 177.49 234.44 177.072C234.495 176.946 234.525 176.81 234.528 176.672C234.528 176.398 234.419 176.135 234.226 175.941C234.032 175.747 233.77 175.637 233.496 175.636H226.596C227.092 176.48 226.836 177.644 226 178.476Z" fill="#3FBDF1"/>
<path d="M215.832 177.456C215.832 177.591 215.86 177.724 215.912 177.848C215.964 177.972 216.039 178.085 216.135 178.18C216.23 178.274 216.344 178.349 216.468 178.4C216.592 178.451 216.726 178.477 216.86 178.476H226C226.824 177.644 227.08 176.476 226.584 175.628H218.08C217.622 175.628 217.174 175.762 216.791 176.012C216.408 176.263 216.106 176.62 215.924 177.04C215.865 177.171 215.834 177.313 215.832 177.456Z" fill="#D7E8F0"/>
<path d="M222.048 178.476C222.077 178.531 222.11 178.583 222.148 178.632C222.856 179.612 224.4 179.696 225.604 178.824C225.746 178.719 225.88 178.603 226.004 178.476C226.828 177.644 227.084 176.476 226.588 175.628C226.562 175.573 226.53 175.521 226.492 175.472C225.776 174.5 224.232 174.416 223.028 175.284C222.887 175.39 222.753 175.504 222.628 175.628C221.804 176.46 221.548 177.632 222.048 178.476Z" fill="white"/>
<path d="M185.404 207.867H191.688C192.144 207.866 192.591 207.733 192.974 207.484C193.356 207.235 193.658 206.88 193.844 206.463C193.899 206.337 193.929 206.201 193.932 206.063C193.932 205.79 193.823 205.527 193.63 205.334C193.436 205.14 193.174 205.031 192.9 205.031H186C186.484 205.871 186.228 207.035 185.404 207.867Z" fill="#3FBDF1"/>
<path d="M160.468 206.848C160.468 206.982 160.496 207.115 160.548 207.24C160.599 207.364 160.675 207.476 160.771 207.571C160.866 207.666 160.979 207.74 161.104 207.792C161.228 207.842 161.362 207.868 161.496 207.868H185.404C186.228 207.036 186.484 205.868 185.988 205.024H162.716C162.259 205.024 161.811 205.156 161.428 205.406C161.045 205.657 160.744 206.013 160.56 206.432C160.503 206.563 160.472 206.704 160.468 206.848Z" fill="#D7E8F0"/>
<path d="M181.44 207.868C181.469 207.922 181.503 207.975 181.54 208.024C182.248 209.004 183.792 209.088 184.996 208.22C185.137 208.112 185.271 207.994 185.396 207.868C186.22 207.036 186.476 205.868 185.98 205.024C185.954 204.968 185.922 204.916 185.884 204.868C185.168 203.892 183.624 203.808 182.42 204.676C182.278 204.781 182.144 204.898 182.02 205.024C181.2 205.852 180.94 207.024 181.44 207.868Z" fill="white"/>
<path d="M27.272 223.273C27.272 223.273 14.072 282.901 48.028 295.357C81.984 307.813 173.708 296.113 135.588 253.089C97.468 210.065 27.272 223.273 27.272 223.273Z" fill="#2E2E2E"/>
<path d="M192.032 90.8004C196.647 89.8376 201.326 89.2136 206.032 88.9324C206.132 88.9324 206.216 88.9324 206.304 88.9324C209.396 88.7284 214.812 88.6404 217.904 88.6084" stroke="black" stroke-width="4.05" stroke-miterlimit="10"/>
<path d="M169.156 100.669C169.124 100.689 169.104 100.713 169.072 100.733" stroke="black" stroke-width="4.05" stroke-miterlimit="10"/>
<path d="M221.78 75.5997C219.42 76.8397 216.708 75.9997 215.668 73.8877" stroke="black" stroke-width="4.05" stroke-miterlimit="10"/>
<path d="M208.08 45.4599C207.974 47.2951 208.445 49.1175 209.427 50.6711C210.409 52.2251 211.853 53.4323 213.556 54.1239C213.917 53.4627 214.433 52.8999 215.06 52.4839C217.712 50.7679 217.24 55.3519 224.44 54.1439C234.42 52.4599 236.964 55.9359 236.964 55.9359C237.184 56.2399 236.564 58.2239 236.476 58.5879C236.076 60.7199 235.676 62.8399 235.312 64.9879C235.077 66.2891 234.84 67.5823 234.6 68.8679C234.782 68.6919 234.974 68.5275 235.176 68.3759C236.816 65.8159 239.22 62.9439 241.84 65.2879C242.366 65.7759 242.769 66.3819 243.016 67.0559C244.216 70.3159 241.92 72.4119 239.236 73.6679C238.528 74.0963 237.776 74.4463 236.992 74.7119C237.124 75.5359 237.672 78.8199 237.672 78.8279C237.728 79.1639 244.392 75.0559 244.948 74.5559C245.953 73.2275 246.727 71.7403 247.24 70.1559C249.312 63.6199 248.96 55.1719 244.788 49.7959C243.752 48.4639 244.444 47.6959 244.744 46.3999C244.759 46.3299 244.752 46.2575 244.725 46.1919C244.697 46.1259 244.651 46.0699 244.591 46.0307C244.532 45.9915 244.462 45.9711 244.391 45.9719C244.32 45.9731 244.251 45.9951 244.192 46.0359C241.944 47.4479 237.876 46.0039 237.876 46.0039C224.676 38.0758 217.912 42.9799 214.676 43.2279C213.364 43.3179 212.061 42.9471 210.992 42.1799C210.804 42.5511 210.519 42.8639 210.167 43.0851C209.814 43.3063 209.408 43.4275 208.992 43.4359L208.864 44.1239C208.766 44.6467 208.489 45.1191 208.08 45.4599Z" fill="#3FBDF1"/>
<path d="M213.564 54.1396C211.861 53.4484 210.417 52.2412 209.434 50.6872C208.452 49.1332 207.982 47.3108 208.088 45.4756C208.127 44.7708 208.229 44.0708 208.392 43.3836L208.508 43.4076C208.666 43.4432 208.827 43.4552 208.988 43.4436C209.404 43.4356 209.81 43.3144 210.162 43.0932C210.515 42.872 210.8 42.5588 210.988 42.1876C211.098 41.9812 211.175 41.7584 211.216 41.5276L211.832 38.1797C211.832 38.1797 213.832 40.8876 217.032 40.6356C220.232 40.3836 226.996 35.4797 240.232 43.4116C240.232 43.4116 243.408 44.5836 245.656 43.1716C245.714 43.1312 245.784 43.1088 245.855 43.108C245.926 43.1072 245.996 43.1276 246.055 43.1668C246.115 43.206 246.161 43.262 246.188 43.3276C246.216 43.3936 246.222 43.466 246.208 43.5356C245.908 44.8276 246.108 45.8716 247.144 47.2036C251.316 52.5796 251.668 61.0276 249.596 67.5636C248.689 70.2724 247.078 72.6908 244.928 74.5716C244.372 75.0716 237.708 79.1796 237.652 78.8436C237.652 78.8436 237.104 75.5516 236.972 74.7276L236.94 74.5396L237.128 74.4836C237.841 74.2632 238.538 73.996 239.216 73.6836C241.9 72.4276 244.208 70.3316 242.996 67.0716C242.749 66.398 242.346 65.792 241.82 65.3036C239.2 62.9596 236.796 65.8316 235.156 68.3916C234.839 68.8776 234.579 69.3984 234.38 69.9436C234.444 69.5916 234.508 69.2476 234.576 68.8956C234.816 67.6076 235.053 66.3144 235.288 65.0156C235.688 62.8796 236.06 60.7596 236.452 58.6156C236.524 58.2516 237.16 56.2676 236.94 55.9636C236.94 55.9636 234.396 52.4876 224.416 54.1716C217.216 55.3716 217.688 50.7956 215.036 52.5116C214.408 52.9276 213.892 53.4908 213.532 54.1516C213.42 54.3672 213.322 54.5888 213.236 54.8156C213.222 54.844 213.21 54.8736 213.2 54.9036C213.02 55.3996 212.856 55.8996 212.696 56.3876C211.2 61.1436 210.212 66.2796 210.74 71.2756C211.384 77.3316 215.796 84.4516 222.816 83.8476C225.025 83.5888 227.179 82.984 229.2 82.0556" stroke="black" stroke-width="4.05" stroke-miterlimit="10"/>
<path d="M214.33 67.0468C215.017 67.0272 215.555 66.3384 215.531 65.508C215.508 64.6776 214.932 64.0204 214.245 64.04C213.559 64.0592 213.021 64.748 213.044 65.5784C213.068 66.4088 213.643 67.066 214.33 67.0468Z" fill="black"/>
<path d="M223.73 69.5736C224.416 69.554 224.954 68.8652 224.931 68.0352C224.907 67.2048 224.332 66.5472 223.645 66.5668C222.958 66.5864 222.42 67.2752 222.444 68.1052C222.467 68.9356 223.043 69.5932 223.73 69.5736Z" fill="black"/>
<path d="M219.672 70.1272C219.672 70.1272 216.036 70.9272 216.404 69.0632C216.516 68.4792 217.428 62.7432 217.428 62.7432C217.428 62.7432 215.732 59.3272 211.296 60.1232" stroke="black" stroke-width="4.05" stroke-miterlimit="10"/>
<path d="M221.304 62.2329C221.304 62.2329 227.068 61.2529 229.276 65.8569" stroke="black" stroke-width="4.05" stroke-miterlimit="10"/>
<path d="M217.968 88.5596C213.428 90.9596 211.004 96.7356 212.904 100.916C216.072 107.88 224.412 109.928 231.304 107.916C238.968 105.676 244.6 98.6116 244.264 90.5116" stroke="black" stroke-width="4.05" stroke-miterlimit="10"/>
<path d="M245.456 221.357C258.62 190.765 263.4 136.769 263.4 136.769V212.105C263.4 213.32 263.638 214.523 264.103 215.646C264.568 216.769 265.25 217.789 266.109 218.648C266.968 219.507 267.988 220.189 269.111 220.653C270.234 221.118 271.437 221.357 272.652 221.357H301.852C302.947 221.374 304.009 220.986 304.835 220.267C305.661 219.549 306.193 218.551 306.328 217.465C306.387 216.866 306.319 216.262 306.13 215.691C305.941 215.12 305.635 214.595 305.23 214.15C304.826 213.705 304.332 213.35 303.782 213.107C303.232 212.864 302.637 212.739 302.036 212.741H290.076C289.599 212.739 289.129 212.629 288.701 212.418C288.273 212.207 287.899 211.901 287.607 211.524C287.316 211.147 287.114 210.708 287.018 210.241C286.922 209.773 286.933 209.291 287.052 208.829C294.252 180.429 298.704 147.093 289.332 117.593C287.396 111.505 283.224 106.081 278.296 101.889C272.64 97.0565 265.668 94.8405 258.524 93.2005C253.812 92.1205 249.059 91.2269 244.264 90.5205C244.25 90.5253 244.234 90.5253 244.22 90.5205C244.188 90.5205 244.156 90.5205 244.136 90.5205H244.104H244.06H243.996" stroke="black" stroke-width="4.05" stroke-miterlimit="10"/>
<path d="M241.248 76.9282L240.72 86.4842C240.67 87.4182 240.963 88.3382 241.544 89.0706C242.126 89.803 242.955 90.2974 243.876 90.4602H243.996C244.017 90.4546 244.039 90.4546 244.06 90.4602H244.08H244.136" stroke="black" stroke-width="4.05" stroke-miterlimit="10"/>
<path d="M244.22 90.5042H244.136H244.104H244.08H244.06H243.996H243.876C242.955 90.3414 242.126 89.847 241.544 89.1146C240.963 88.3818 240.67 87.4618 240.72 86.5282L241.248 76.9722" stroke="black" stroke-width="4.05" stroke-miterlimit="10"/>
<path d="M218.724 83.2527C218.464 83.1487 218.724 93.9247 212.296 98.6047" stroke="black" stroke-width="4.05" stroke-miterlimit="10"/>
<path d="M132.664 221.359H112.072" stroke="black" stroke-width="4.05" stroke-miterlimit="10"/>
<path d="M333.836 221.359H164.724" stroke="black" stroke-width="4.05" stroke-miterlimit="10"/>
<path d="M73.1 120.187C73.2984 124.222 73.154 128.266 72.668 132.275C72.044 136.987 67.688 142.975 66.744 147.635C65.396 154.339 67.436 161.267 70.236 167.491C73.62 175.015 78.952 182.583 78.432 191.199C78.1656 194.952 77.0492 198.594 75.1668 201.852C73.2848 205.108 70.686 207.895 67.568 209.999C63.2972 212.857 58.4184 214.678 53.32 215.319C52.608 215.403 51.884 215.471 51.16 215.491C50.76 215.491 50.36 215.447 49.96 215.415C36.4 214.267 22.492 203.923 22.524 189.523C22.524 180.323 29.5159 173.123 30.6959 164.195C31.4199 158.735 29.82 153.063 31.3 147.763C33.7 139.299 42.976 134.683 47.04 126.891C50.032 121.139 50.52 114.427 52.888 108.395C56.184 99.9952 61.448 90.3952 68.648 89.5952C70.7372 89.832 72.7568 90.4908 74.584 91.5312C79.048 93.9312 80.184 94.0832 81.092 96.2232C82.02 98.4592 80.636 100.847 78.324 101.563C74.42 102.799 72.736 110.731 73.1 120.187Z" fill="#3FBDF1"/>
<path d="M77.0242 92.8332C88.7442 89.4372 96.1922 94.4332 101.52 100.193C106.848 105.953 106.6 112.493 106.6 112.493" stroke="black" stroke-width="4.05" stroke-miterlimit="10"/>
<path d="M113.376 205.488C113.199 214.644 112.039 223.755 109.916 232.664" stroke="black" stroke-width="4.05" stroke-miterlimit="10"/>
<path d="M142.5 280.055C138.208 287.439 128.028 292.683 115.572 295.947C93.468 301.739 64.204 301.287 48.036 295.351C14.06 282.899 27.268 223.271 27.268 223.271C27.268 223.271 86.0321 212.211 125.216 243.271C128.959 246.23 132.434 249.514 135.6 253.083C139.932 257.983 142.592 262.467 143.848 266.563C145.388 271.667 144.772 276.163 142.5 280.055Z" stroke="black" stroke-width="4.05" stroke-miterlimit="10"/>
<path d="M119.976 294.941C119.976 294.941 99.388 352.089 133.976 366.685C168.564 381.281 6.95995 383.225 42.632 366.685C78.304 350.145 57.8 298.433 57.8 298.433" stroke="black" stroke-width="4.05" stroke-miterlimit="10"/>
<path d="M161.856 100.733C161.428 99.4246 161.604 94.8766 161.744 92.3086C161.771 91.8238 161.986 91.3682 162.342 91.039C162.699 90.7098 163.17 90.5322 163.656 90.5446L204.748 90.9046C205.441 90.911 206.103 91.1906 206.591 91.6826C207.078 92.175 207.352 92.8398 207.352 93.5326V124.369C207.352 124.715 207.284 125.057 207.151 125.377C207.018 125.697 206.823 125.987 206.578 126.231C206.333 126.475 206.042 126.669 205.721 126.8C205.401 126.931 205.058 126.998 204.712 126.997L164.668 126.849C164.088 126.825 163.54 126.577 163.138 126.159C162.736 125.739 162.512 125.181 162.512 124.601V122.249C165.36 123.577 170.744 123.985 170.744 123.985C172.66 123.933 175.688 123.701 177.348 122.749C178.868 121.877 180.788 120.625 181.048 118.729C181.148 117.995 180.954 117.252 180.508 116.661C180.062 116.071 179.401 115.681 178.668 115.577C178.228 115.489 177.772 115.521 177.348 115.669" stroke="black" stroke-width="4.05" stroke-miterlimit="10"/>
<path d="M201.96 186.185C201.941 186.735 201.756 187.266 201.428 187.709C200.488 188.865 198.628 188.637 197.364 188.281C192.048 186.769 188.856 192.529 186.848 196.409C181.776 206.217 174.168 215.329 164.676 221.361C164.06 221.761 163.432 222.137 162.796 222.505C153.52 227.857 141.5 226.861 132.528 221.305L144 193.125L145.136 194.033C152.064 199.501 160.592 196.433 166.496 191.037C168.135 189.544 169.581 187.852 170.8 186.001C172.832 182.877 174.572 179.505 177.352 176.965C181.2 173.449 186.832 172.761 191.696 174.249C196.56 175.737 202.4 180.521 201.96 186.185Z" fill="white"/>
<path d="M201.912 184.188C201.912 184.188 200.608 177.284 188.852 182.672" stroke="black" stroke-width="4.05" stroke-miterlimit="10"/>
<path d="M195.372 175.901C195.372 175.901 188.044 173.557 183.964 179.157" stroke="black" stroke-width="4.05" stroke-miterlimit="10"/>
<path d="M47.4481 215.429C49.4045 215.603 51.3741 215.571 53.3241 215.333C58.4213 214.683 63.2973 212.858 67.5681 210C70.6861 207.896 73.2845 205.11 75.1669 201.853C77.0489 198.596 78.1657 194.953 78.4321 191.201C78.9521 182.581 73.6321 175.013 70.2361 167.489C67.4361 161.261 65.3961 154.333 66.7481 147.637C67.6881 142.973 72.0361 136.988 72.6641 132.272C73.1525 128.263 73.2997 124.219 73.1041 120.184C72.7401 110.724 74.4201 102.785 78.3241 101.577C80.6361 100.861 82.0241 98.4688 81.0921 96.2368C80.2001 94.0928 79.0521 93.9648 74.5841 91.5368C62.9361 85.2008 54.8361 97.0128 50.3641 108.401C47.9921 114.437 47.5121 121.141 44.5161 126.893C40.4521 134.689 31.1561 139.293 28.7801 147.773C27.2961 153.069 28.8961 158.745 28.1761 164.197C27.0001 173.121 20.0201 180.317 20.0001 189.525C19.9681 203.921 33.8921 214.273 47.4481 215.429Z" stroke="black" stroke-width="4.05" stroke-miterlimit="10"/>
<path d="M142.5 280.057C141.496 287.201 140 295.397 138.352 303.601C133.68 326.853 127.736 350.245 127.736 350.245" stroke="black" stroke-width="4.05" stroke-miterlimit="10"/>
<path d="M143.832 266.564C143.852 265.692 143.864 264.892 143.832 264.132C143.476 247.732 131.684 243.812 126.612 242.872C125.855 242.724 125.09 242.626 124.32 242.58" stroke="black" stroke-width="4.05" stroke-miterlimit="10"/>
<path d="M129.496 343.153C130.149 342.753 130.896 342.534 131.662 342.52C132.427 342.505 133.182 342.695 133.85 343.069C134.518 343.444 135.073 343.99 135.46 344.651C135.846 345.311 136.049 346.063 136.048 346.829C136.048 346.885 136.048 346.953 136.048 347.033C135.984 349.008 135.464 350.941 134.528 352.682C133.591 354.423 132.265 355.923 130.652 357.065L125.092 361.021" stroke="black" stroke-width="4.05" stroke-miterlimit="10"/>
<path d="M66.3362 152.924C67.1122 152.608 67.9042 152.328 68.7042 152.068C70.3882 148.956 70.1282 142.144 69.9682 139.668L71.6522 135.872C76.3002 138.728 82.4522 137.656 88.1602 135.668C88.9618 135.388 89.7414 135.048 90.4922 134.652C94.1162 132.988 99.1962 129.052 96.9162 127.02C94.6362 124.988 94.7962 121.076 96.2562 118.676C96.7002 117.94 97.4882 117.216 98.3082 117.444C98.8602 117.596 99.2162 118.112 99.5322 118.588C99.9322 119.184 100.332 119.756 100.732 120.34C100.872 120.536 101.1 120.74 101.316 120.652C101.408 120.592 101.479 120.505 101.52 120.404C102.224 118.956 102.092 116.88 102.212 115.292C102.352 113.4 102.46 111.496 102.516 109.596C102.548 108.548 102.764 107.424 103.888 107.056C104.115 106.969 104.359 106.934 104.601 106.955C104.843 106.975 105.078 107.051 105.287 107.176C105.495 107.301 105.673 107.472 105.805 107.675C105.938 107.879 106.022 108.111 106.052 108.352C106.87 112.949 106.99 117.643 106.408 122.276C105.856 127.128 104.86 132.276 101.748 136.188C99.9754 138.445 97.5998 140.153 94.8962 141.116C92.2802 142.024 92.3642 145.18 92.3642 147.948V152.544C100.408 154.176 107.964 156.144 114.212 161.744C118.344 165.521 122.232 169.557 125.852 173.828C137.248 187.2 139.712 189.708 145.2 194.032C152.128 199.5 160.66 196.432 166.56 191.036C168.196 189.543 169.639 187.851 170.856 186C172.888 182.876 174.628 179.504 177.404 176.964C181.256 173.448 186.888 172.76 191.752 174.248C196.616 175.736 202.464 180.52 202 186.184C201.981 186.733 201.797 187.264 201.472 187.708C200.532 188.864 198.672 188.636 197.408 188.28C192.088 186.768 188.9 192.528 186.888 196.408C181.82 206.216 174.208 215.328 164.716 221.36C164.1 221.76 163.476 222.136 162.836 222.504C152.232 228.624 138.016 226.44 128.896 218.644L106.896 199.968" stroke="black" stroke-width="4.05" stroke-miterlimit="10"/>
<path d="M68.7041 152.068C68.7041 152.068 79.2121 148.82 92.3641 152.556" stroke="black" stroke-width="4.05" stroke-miterlimit="10"/>
<path d="M162.512 122.249C162.512 122.249 162.592 135.849 165.836 141.085" stroke="black" stroke-width="4.05" stroke-miterlimit="10"/>
<path d="M173.172 60.0001C170.676 64.2601 170.792 67.2841 171.44 72.1921C171.494 72.6101 171.428 73.0345 171.25 73.4169C171.073 73.7993 170.792 74.1237 170.438 74.3529C170.084 74.5821 169.673 74.7065 169.251 74.7121C168.83 74.7173 168.416 74.6037 168.056 74.3841C153.656 66.0961 140.18 72.6521 122.988 68.5921C116.676 67.1081 108.808 64.0401 103.412 59.1001C101.622 56.4413 100.666 53.3089 100.668 50.1041C100.668 36.668 119.024 25.772 141.656 25.772C156.164 25.772 168.908 30.248 176.196 36.992C176.196 36.992 176.196 36.992 176.216 37.016C178.044 39.6448 179.042 42.7621 179.08 45.9641C179.08 50.8001 175.496 56.0001 173.172 60.0001Z" fill="#D7E8F0"/>
<path d="M179.016 45.9726V46.3126C178.932 51.0206 176.576 55.3966 173.78 59.1846C171.908 61.7206 169.688 64.5326 170.216 67.6406C170.448 69.0086 171.212 70.2526 171.416 71.6406C171.62 73.0286 170.876 74.7286 169.488 74.8006C168.608 74.8446 167.856 74.2166 167.16 73.6766C163.028 70.4766 157.66 69.2766 152.44 69.0686C147.22 68.8606 142.008 69.5446 136.784 69.6926C129.256 69.9086 121.608 68.9686 114.652 66.0926C108.4 63.4846 102.7 59.2446 98.948 53.6006C95.264 48.0366 97.444 39.9645 101.372 35.1285C105.06 30.5925 110.396 27.6885 115.872 25.6445C130.596 20.1445 147.404 20.2765 161.928 26.2965C166.24 28.0645 170.4 30.4005 173.64 33.7685C176.8 37.0525 178.988 41.4286 179.016 45.9726Z" stroke="black" stroke-width="4.05" stroke-miterlimit="10"/>
<path d="M118.592 51.3247C121.716 51.3247 124.248 48.7927 124.248 45.6687C124.248 42.5451 121.716 40.0127 118.592 40.0127C115.468 40.0127 112.936 42.5451 112.936 45.6687C112.936 48.7927 115.468 51.3247 118.592 51.3247Z" fill="white"/>
<path d="M136.88 51.3247C140.004 51.3247 142.536 48.7927 142.536 45.6687C142.536 42.5451 140.004 40.0127 136.88 40.0127C133.757 40.0127 131.224 42.5451 131.224 45.6687C131.224 48.7927 133.757 51.3247 136.88 51.3247Z" fill="white"/>
<path d="M155.524 51.3247C158.648 51.3247 161.18 48.7927 161.18 45.6687C161.18 42.5451 158.648 40.0127 155.524 40.0127C152.401 40.0127 149.868 42.5451 149.868 45.6687C149.868 48.7927 152.401 51.3247 155.524 51.3247Z" fill="white"/>
<g opacity="0.54">
<path opacity="0.54" d="M264.208 282.801L261.908 316.001C260.857 318.005 259.542 319.86 258 321.517C257.832 321.457 257.664 321.393 257.5 321.317C257.192 321.213 256.888 321.089 256.6 320.969C251.94 318.925 248.4 315.117 247.368 310.801C246.436 307.021 247.276 302.937 245.476 299.385C243.28 295.009 237.308 292.265 236.576 287.329C235.888 282.709 240.048 278.473 239.376 273.945C238.576 268.825 232.316 265.789 231.144 260.789C230.412 257.681 231.068 254.113 230.792 250.913C230.488 247.333 229.887 243.785 228.996 240.305C238.264 239.633 247.696 244.741 250.7 252.057C253.152 258.057 251.676 265.045 255.5 270.501C257.588 273.457 261.064 275.669 262.864 278.761C263.419 279.726 263.824 280.77 264.064 281.857C264.064 281.933 264.064 282.009 264.092 282.069C264.092 282.193 264.124 282.281 264.14 282.373C264.18 282.649 264.208 282.801 264.208 282.801Z" fill="#3FBDF1"/>
<path opacity="0.54" d="M264.224 282.772C264.224 282.772 264.196 282.636 264.164 282.372C264.191 282.477 264.211 282.584 264.224 282.692C264.23 282.704 264.233 282.718 264.233 282.732C264.233 282.746 264.23 282.759 264.224 282.772Z" fill="#3FBDF1"/>
</g>
<path d="M294.844 269.817C293.644 274.129 287.072 276.749 286.28 281.169C285.58 285.089 289.908 288.745 289.192 292.725C288.428 296.993 282.208 299.353 279.924 303.125C278.064 306.189 278.932 309.713 277.972 312.973C276.86 316.677 273.172 319.985 268.308 321.737C268.004 321.845 267.716 321.949 267.408 322.041C267.24 322.089 267.056 322.149 266.888 322.193C265.288 320.869 263.428 318.537 261.92 316.021L264.208 282.801C265.992 281.289 268.032 279.905 269.452 278.225C270.992 276.413 271.708 274.433 272.164 272.357H272.212V272.129C272.88 268.853 272.94 265.421 274.48 262.313C277.604 255.989 287.408 251.581 297.056 252.161C296.146 255.148 295.523 258.215 295.196 261.321C294.92 264.069 295.6 267.149 294.844 269.817Z" fill="#3FBDF1"/>
<path d="M272.228 272.1V272.328H272.18L272.228 272.1Z" fill="#3FBDF1"/>
<path d="M272.228 272.1L272.18 272.328C271.724 274.404 271.008 276.384 269.468 278.196C268.048 279.876 266.008 281.26 264.224 282.772C264.231 282.751 264.231 282.729 264.224 282.708C264.212 282.6 264.191 282.493 264.164 282.388C264.164 282.296 264.132 282.208 264.116 282.084C264.116 282.024 264.116 281.948 264.088 281.872C263.848 280.785 263.443 279.741 262.888 278.776C261.088 275.684 257.612 273.472 255.524 270.516C255.524 270.516 256.468 254.936 264.44 250.196C272 245.716 272.228 269.508 272.228 272.1Z" fill="#3FBDF1"/>
<path d="M272.228 272.1V272.328H272.18L272.228 272.1Z" fill="#3FBDF1"/>
<path d="M264.208 282.708V282.8C264.208 282.8 264.18 282.664 264.148 282.4C264.175 282.502 264.195 282.604 264.208 282.708Z" fill="#3FBDF1"/>
<path d="M263.496 282.8C265.272 281.288 267.336 279.884 268.76 278.208C272.76 273.492 271.216 267.464 273.78 262.292C276.9 255.976 286.712 251.572 296.356 252.148C295.441 255.134 294.816 258.201 294.492 261.308C294.204 264.076 294.892 267.152 294.136 269.832C292.908 274.144 286.36 276.76 285.564 281.18C284.856 285.096 289.196 288.752 288.48 292.728C287.716 297 281.5 299.36 279.212 303.128C277.344 306.196 278.22 309.712 277.252 312.98C276.08 316.92 272 320.4 266.684 322.044C266.516 322.1 266.332 322.16 266.16 322.204C264.56 320.88 262.7 318.548 261.188 316.028" stroke="black" stroke-width="4.05" stroke-miterlimit="10"/>
<path d="M290.468 257.095C276.088 272.571 269.324 305.199 266.692 322.047C266.476 323.467 266.292 324.767 266.116 325.939" stroke="black" stroke-width="4.05" stroke-miterlimit="10"/>
<path d="M291.796 335.428L285.2 374.464C285.043 375.533 284.513 376.512 283.703 377.227C282.893 377.943 281.856 378.348 280.776 378.372H246.184C245.093 378.347 244.047 377.933 243.234 377.205C242.421 376.476 241.896 375.481 241.752 374.4L235.652 335.424L291.796 335.428Z" stroke="black" stroke-width="4.05" stroke-miterlimit="10"/>
<path d="M298.08 331.069C298.021 332.227 297.527 333.319 296.696 334.128C295.865 334.936 294.759 335.401 293.6 335.429H233.956C232.81 335.401 231.716 334.946 230.888 334.153C230.061 333.359 229.56 332.285 229.484 331.141C229.232 328.341 231.304 325.941 233.956 325.941H293.6C296.228 325.945 298.292 328.309 298.08 331.069Z" stroke="black" stroke-width="4.05" stroke-miterlimit="10"/>
<path d="M257.292 321.508C259.852 318.968 262.988 313.304 264.376 308.68C265.52 304.868 263.508 300.944 263.044 297.032C262.324 290.908 265.364 284.324 262.16 278.772C260.372 275.676 256.896 273.476 254.808 270.512C250.964 265.052 252.44 258.068 249.984 252.08C246.98 244.756 237.552 239.648 228.288 240.328C229.173 243.809 229.774 247.357 230.084 250.936C230.36 254.136 229.684 257.704 230.428 260.808C231.6 265.808 237.888 268.836 238.66 273.96C239.34 278.488 235.176 282.728 235.86 287.34C236.596 292.284 242.56 295.016 244.764 299.4C246.556 302.956 245.716 307.036 246.644 310.812C247.808 315.532 251.932 319.68 257.292 321.508Z" stroke="black" stroke-width="4.05" stroke-miterlimit="10"/>
<path d="M233.944 246.064C247.748 264 254.244 301.796 256.8 321.308C257.016 323 257.2 324.552 257.364 325.94" stroke="black" stroke-width="4.05" stroke-miterlimit="10"/>
<path d="M254.8 270.512C254.8 270.512 255.748 254.932 263.716 250.196C271.684 245.46 271.516 272 271.516 272" stroke="black" stroke-width="4.05" stroke-miterlimit="10"/>
<path d="M263.496 282.8C263.496 282.8 261.868 273.888 264.724 265.124" stroke="black" stroke-width="4.05" stroke-miterlimit="10"/>
</svg>
