<svg width="300" height="300" viewBox="0 0 300 300" fill="none" xmlns="http://www.w3.org/2000/svg">
<path d="M262.137 120.282H207.987C205.23 120.282 202.995 122.517 202.995 125.274V202.707C202.995 205.464 205.23 207.699 207.987 207.699H262.137C264.894 207.699 267.129 205.464 267.129 202.707V125.274C267.129 122.517 264.894 120.282 262.137 120.282Z" stroke="#CCDDE2" stroke-width="4.83" stroke-miterlimit="10"/>
<path d="M259.8 129.288H210.981C209.603 129.288 208.485 130.406 208.485 131.784V142.167C208.485 143.546 209.603 144.663 210.981 144.663H259.8C261.179 144.663 262.296 143.546 262.296 142.167V131.784C262.296 130.406 261.179 129.288 259.8 129.288Z" stroke="#CCDDE2" stroke-width="4.83" stroke-miterlimit="10"/>
<path d="M235.062 135.765C235.94 135.765 236.652 135.053 236.652 134.175C236.652 133.297 235.94 132.585 235.062 132.585C234.184 132.585 233.472 133.297 233.472 134.175C233.472 135.053 234.184 135.765 235.062 135.765Z" fill="#D7E8F0"/>
<path d="M230.619 141.37C230.619 140.191 231.087 139.061 231.92 138.228C232.754 137.395 233.884 136.927 235.062 136.927C236.24 136.927 237.371 137.395 238.204 138.228C239.037 139.061 239.505 140.191 239.505 141.37H230.619Z" fill="#D7E8F0"/>
<path d="M235.386 161.142C233.692 161.143 232.036 161.646 230.628 162.587C229.22 163.529 228.123 164.867 227.475 166.432C226.827 167.997 226.658 169.719 226.989 171.38C227.32 173.041 228.136 174.567 229.334 175.765C230.532 176.962 232.058 177.778 233.719 178.108C235.381 178.438 237.103 178.268 238.667 177.62C240.232 176.972 241.57 175.874 242.511 174.465C243.452 173.057 243.954 171.401 243.954 169.707C243.954 168.582 243.732 167.468 243.302 166.429C242.871 165.389 242.24 164.445 241.444 163.65C240.649 162.854 239.704 162.224 238.665 161.793C237.625 161.363 236.511 161.142 235.386 161.142ZM235.386 176.205C235.064 176.189 234.761 176.051 234.539 175.817C234.317 175.584 234.193 175.275 234.193 174.953C234.193 174.631 234.317 174.321 234.539 174.088C234.761 173.855 235.064 173.716 235.386 173.7C235.708 173.716 236.011 173.855 236.233 174.088C236.455 174.321 236.579 174.631 236.579 174.953C236.579 175.275 236.455 175.584 236.233 175.817C236.011 176.051 235.708 176.189 235.386 176.205ZM236.967 166.572C236.703 168.429 236.481 170.379 235.926 172.185C235.794 172.62 234.978 172.62 234.846 172.185C234.455 170.828 234.154 169.445 233.946 168.048C233.775 167.031 233.181 165.384 233.748 164.397C234.249 163.497 235.659 163.407 236.478 163.869C237.483 164.436 237.087 165.648 236.967 166.572Z" fill="#D7E8F0"/>
<path d="M141.669 137.638C138.666 136.742 135.465 136.757 132.471 137.681C129.476 138.605 126.824 140.396 124.847 142.828C122.871 145.26 121.66 148.223 121.368 151.343C121.076 154.463 121.715 157.599 123.206 160.355C124.696 163.112 126.971 165.365 129.741 166.828C132.512 168.292 135.654 168.901 138.771 168.579C141.888 168.257 144.84 167.017 147.252 165.017C149.665 163.018 151.43 160.348 152.325 157.345C152.92 155.351 153.116 153.26 152.902 151.19C152.688 149.121 152.069 147.114 151.079 145.284C150.089 143.454 148.749 141.837 147.135 140.525C145.52 139.213 143.663 138.232 141.669 137.638ZM133.71 164.338C133.138 164.149 132.662 163.744 132.383 163.21C132.104 162.676 132.044 162.054 132.217 161.477C132.389 160.899 132.779 160.412 133.305 160.117C133.831 159.823 134.451 159.745 135.033 159.901C135.332 159.98 135.613 160.12 135.857 160.31C136.102 160.5 136.306 160.737 136.457 161.007C136.608 161.278 136.704 161.576 136.738 161.884C136.772 162.191 136.744 162.503 136.655 162.8C136.567 163.097 136.42 163.373 136.223 163.612C136.025 163.851 135.782 164.048 135.508 164.192C135.233 164.335 134.933 164.422 134.624 164.447C134.315 164.472 134.004 164.435 133.71 164.338ZM141.6 148.096C140.151 151.249 138.723 154.588 136.8 157.495C136.338 158.197 134.889 157.765 134.886 156.925C134.911 154.314 135.111 151.708 135.486 149.125C135.72 147.238 135.537 144.004 137.064 142.552C138.42 141.253 140.964 141.811 142.179 143.059C143.64 144.583 142.302 146.524 141.6 148.096Z" fill="#3FBDF1"/>
<path d="M97.419 172.716C96.3204 173.834 95.5779 175.252 95.2857 176.792C94.9932 178.332 95.1639 179.924 95.7765 181.367C96.3888 182.81 97.4151 184.039 98.7261 184.899C100.037 185.758 101.573 186.21 103.14 186.196C104.708 186.183 106.236 185.705 107.532 184.823C108.828 183.941 109.833 182.695 110.42 181.242C111.008 179.789 111.151 178.194 110.833 176.659C110.514 175.124 109.747 173.719 108.63 172.62C107.13 171.146 105.107 170.328 103.005 170.346C100.902 170.364 98.8932 171.217 97.419 172.716ZM107.361 182.487C107.254 182.595 107.128 182.682 106.987 182.741C106.847 182.801 106.697 182.832 106.545 182.833C106.393 182.835 106.242 182.806 106.101 182.749C105.96 182.692 105.832 182.608 105.723 182.502C105.614 182.395 105.528 182.268 105.469 182.128C105.409 181.988 105.378 181.838 105.376 181.686C105.375 181.534 105.403 181.383 105.46 181.242C105.517 181.101 105.601 180.972 105.708 180.864C105.923 180.644 106.217 180.52 106.524 180.517C106.831 180.514 107.127 180.634 107.346 180.849C107.565 181.064 107.69 181.357 107.693 181.665C107.695 181.972 107.576 182.267 107.361 182.487ZM102.03 175.2C103.083 176.58 104.226 177.993 105.057 179.529C105.258 179.898 104.73 180.429 104.358 180.243C103.212 179.617 102.11 178.916 101.058 178.143C100.275 177.6 98.805 176.922 98.52 175.905C98.262 175.005 99.12 174.003 99.942 173.766C100.953 173.472 101.496 174.519 102.03 175.2Z" fill="#3FBDF1"/>
<path d="M213.867 151.527H255.708" stroke="#CCDDE2" stroke-width="4.83" stroke-miterlimit="10"/>
<path d="M213.867 155.646H255.708" stroke="#CCDDE2" stroke-width="4.83" stroke-miterlimit="10"/>
<path d="M213.867 182.166H255.708" stroke="#CCDDE2" stroke-width="4.83" stroke-miterlimit="10"/>
<path d="M223.584 186.063H245.988" stroke="#CCDDE2" stroke-width="4.83" stroke-miterlimit="10"/>
<path d="M267.132 176.76C270.822 181.398 274.332 187.146 277.506 194.229C296.832 237.387 272.676 259.29 272.676 259.29" stroke="#9F9F9F" stroke-width="4.83" stroke-miterlimit="10"/>
<path d="M65.277 210.982C65.277 210.982 36.6 178.453 72.36 162.346C108.12 146.239 115.2 144.001 112.62 127.246C110.04 110.491 130.32 93.4296 162.213 104.704C194.106 115.978 194.745 137.224 192.483 153.649C191.199 163.012 196.512 165.262 202.983 164.791" stroke="#9F9F9F" stroke-width="4.83" stroke-miterlimit="10"/>
<path d="M265.11 273.327C265.037 275.123 264.572 276.881 263.748 278.478C263.716 278.558 263.677 278.635 263.634 278.709C262.188 281.307 260.165 283.538 257.721 285.231L257.634 285.291C255.428 286.767 252.946 287.783 250.338 288.276C250.338 288.3 250.338 288.276 250.338 288.276H278.1C278.1 288.276 274.386 235.311 240.252 209.541C207.219 184.605 176.292 196.623 174.33 197.427C174.938 199.143 175.21 200.96 175.131 202.779C175.131 202.779 177.615 204.072 178.029 208.701C178.443 213.33 179.307 226.2 171 228.624C171 228.624 163.542 228.441 161.571 225.579C159.6 222.717 159.126 223.299 158.352 224.025C157.752 224.574 154.131 226.536 152.46 227.436C152.671 227.447 152.881 227.476 153.087 227.523C153.087 227.523 154.044 235.599 165.753 248.256C166.15 248.674 166.524 249.113 166.875 249.57C168.643 251.116 170.63 252.694 172.836 254.304L186.198 264.081C186.499 264.338 186.857 264.52 187.242 264.612C187.99 264.801 188.771 264.808 189.522 264.633C191.076 264.333 201.687 263.25 208.554 262.566C208.71 262.566 208.875 262.536 209.028 262.518L209.928 262.431C210.072 262.431 210.228 262.401 210.354 262.392L211.164 262.314C211.56 262.275 211.917 262.236 212.247 262.209L213.147 262.122C213.942 262.044 214.413 261.996 214.452 261.996C216.088 261.95 217.719 261.791 219.333 261.522C220.878 261.222 222.288 260.739 222.654 259.938C222.723 259.769 222.749 259.586 222.729 259.404C222.646 258.895 222.433 258.415 222.111 258.012C220.701 256.119 217.425 254.496 217.185 254.379C217.178 254.377 217.171 254.377 217.164 254.379L217.098 254.331L197.598 239.181H197.577C197.577 239.181 200.514 207.849 227.277 215.559C227.277 215.559 227.403 215.646 227.634 215.838C228.678 216.642 231.963 219.306 236.793 224.283C236.919 224.418 237.054 224.553 237.189 224.697C237.702 225.219 238.206 225.762 238.707 226.293C242.097 229.917 246.108 234.534 250.533 240.291L250.563 240.321C255.633 246.921 259.287 252.969 261.663 258.321V258.339C264.234 264.156 265.317 269.139 265.104 273.114C265.111 273.185 265.113 273.256 265.11 273.327ZM184.389 219.474C183.597 210.345 188.04 207.039 188.289 206.856C181.971 218.286 193.689 235.806 194.1 236.484C193.764 236.202 185.181 228.6 184.389 219.474Z" fill="#353642"/>
<path d="M167.607 217.683C167.278 217.925 166.936 218.148 166.581 218.349L164.523 214.749C169.269 212.322 170.601 208.044 168.513 205.695C167.929 205.053 167.177 204.587 166.341 204.351C164.241 203.715 162.786 204.651 161.799 205.908C160.994 207.001 160.403 208.237 160.059 209.55L159.057 197.994L158.979 197.094C158.979 197.094 156.795 196.011 150.879 196.977C144.963 197.943 143.874 201.21 141.333 199.761C138.792 198.312 137.352 198.429 137.352 198.429C136.629 201.084 134.694 201.084 134.694 201.084C134.236 201.029 133.785 200.919 133.353 200.757C130.608 198.234 129.864 193.857 129.864 193.857C132.744 193.5 132.966 190.728 132.636 188.457C134.232 189.405 136.482 189.471 139.641 187.443C148.704 181.647 157.998 184.785 161.265 185.268C162.723 185.481 164.319 184.968 165.642 184.368C165.813 184.675 166.051 184.938 166.338 185.139C168.543 186.676 170.362 188.703 171.651 191.061C180.156 206.958 170.832 215.4 167.607 217.683Z" fill="#3FBDF1"/>
<path d="M133.656 288.282H137.076C138.539 288.28 139.941 287.698 140.975 286.664C142.009 285.63 142.591 284.227 142.593 282.765V278.937C142.593 278.588 142.524 278.242 142.39 277.92C142.257 277.597 142.061 277.305 141.814 277.058C141.567 276.811 141.274 276.616 140.952 276.483C140.629 276.349 140.284 276.281 139.935 276.282H119.481C119.482 277.096 119.322 277.903 119.01 278.656C118.699 279.409 118.242 280.093 117.665 280.669C117.089 281.245 116.405 281.702 115.652 282.013C114.899 282.324 114.092 282.484 113.277 282.483H39.366C39.3669 284.02 39.978 285.495 41.0655 286.582C42.1527 287.67 43.6272 288.281 45.165 288.282H145.365C145.496 288.282 145.626 288.256 145.747 288.207C145.867 288.157 145.978 288.083 146.07 287.991C146.163 287.898 146.236 287.788 146.286 287.667C146.336 287.546 146.361 287.416 146.361 287.286V281.073C146.361 279.865 146.84 278.708 147.694 277.855C148.547 277.001 149.705 276.522 150.912 276.522C152.119 276.522 153.277 277.001 154.13 277.855C154.984 278.708 155.463 279.865 155.463 281.073V287.286C155.463 287.416 155.488 287.546 155.538 287.667C155.587 287.787 155.66 287.897 155.753 287.99C155.845 288.082 155.955 288.156 156.075 288.206C156.196 288.256 156.325 288.282 156.456 288.282H278.1C278.1 288.282 274.386 235.305 240.252 209.538C207.219 184.602 176.292 196.62 174.33 197.424L174.234 197.46" stroke="black" stroke-width="4.83" stroke-miterlimit="10"/>
<path d="M140.127 210.39C140.126 210.723 140.026 211.049 139.84 211.325C139.654 211.601 139.391 211.817 139.083 211.943C138.775 212.07 138.436 212.103 138.11 212.037C137.783 211.972 137.483 211.811 137.248 211.575C137.012 211.339 136.852 211.039 136.787 210.713C136.722 210.386 136.756 210.047 136.883 209.74C137.01 209.432 137.226 209.169 137.503 208.983C137.78 208.798 138.105 208.699 138.438 208.698C138.569 208.699 138.698 208.715 138.825 208.746C138.65 208.801 138.498 208.911 138.39 209.059C138.282 209.207 138.224 209.385 138.225 209.568C138.224 209.683 138.246 209.797 138.29 209.903C138.333 210.01 138.397 210.107 138.478 210.188C138.558 210.27 138.655 210.335 138.761 210.379C138.866 210.424 138.98 210.447 139.095 210.447C139.305 210.443 139.507 210.365 139.666 210.228C139.825 210.09 139.931 209.901 139.965 209.694C140.069 209.912 140.124 210.149 140.127 210.39Z" fill="black"/>
<path d="M151.83 210.86C151.831 211.195 151.732 211.523 151.546 211.802C151.361 212.08 151.097 212.297 150.788 212.426C150.479 212.555 150.138 212.588 149.81 212.523C149.481 212.459 149.18 212.297 148.943 212.061C148.706 211.825 148.544 211.523 148.479 211.195C148.413 210.866 148.447 210.526 148.574 210.217C148.703 209.907 148.919 209.643 149.198 209.457C149.476 209.271 149.803 209.171 150.138 209.171C150.219 209.171 150.299 209.18 150.378 209.198C150.228 209.267 150.102 209.378 150.013 209.517C149.924 209.655 149.877 209.817 149.877 209.981C149.867 210.212 149.948 210.438 150.104 210.608C150.26 210.779 150.477 210.88 150.708 210.89C150.939 210.901 151.164 210.819 151.335 210.663C151.505 210.507 151.607 210.29 151.617 210.059C151.756 210.304 151.829 210.58 151.83 210.86Z" fill="black"/>
<path d="M165.327 181.992C165.132 183.306 165.375 184.458 166.341 185.142C168.546 186.679 170.365 188.706 171.654 191.064C181.8 210.021 166.581 218.364 166.581 218.364L164.523 214.764C170.448 211.74 171.054 205.818 166.341 204.366C161.628 202.914 160.059 209.565 160.059 209.565L158.979 197.1C158.979 197.1 156.795 196.017 150.879 196.983C144.963 197.949 143.874 201.216 141.333 199.767C138.792 198.318 137.352 198.435 137.352 198.435C136.629 201.09 134.694 201.09 134.694 201.09C129.024 200.367 127.692 192.522 127.692 192.522C130.569 192.162 130.791 189.39 130.464 187.122C132.057 188.07 134.31 188.139 137.469 186.108C146.532 180.312 155.826 183.453 159.09 183.936C161.346 184.263 163.935 182.883 165.327 181.992Z" stroke="black" stroke-width="4.83" stroke-linecap="round" stroke-linejoin="round"/>
<path d="M170.559 276L172.8 275.1L174.48 279.633L174.216 287.859L171.945 288.27L163.326 287.898C163.326 287.898 163.926 282.882 165.759 280.497C167.592 278.112 170.559 276 170.559 276Z" fill="#3FBDF1"/>
<path d="M131.316 203.862C131.316 203.862 133.611 199.743 138.441 200.172" stroke="black" stroke-width="4.83" stroke-miterlimit="10"/>
<path d="M147.9 200.171C147.9 200.171 153.42 198.932 155.352 202.001" stroke="black" stroke-width="4.83" stroke-miterlimit="10"/>
<path d="M156.453 218.82C156.453 218.82 153.153 216.909 150.738 220.122" stroke="black" stroke-width="4.83" stroke-miterlimit="10"/>
<path d="M135.6 200.832C135.6 200.832 133.251 228.465 150.768 227.955C153.768 227.868 156.75 225.897 159.6 222.726" stroke="black" stroke-width="4.83" stroke-miterlimit="10"/>
<path d="M166.581 225.24L159.6 222.726C159.6 222.726 161.331 228.258 169.905 228.681C178.479 229.104 181.356 209.427 175.056 201.51" stroke="black" stroke-width="4.83" stroke-linejoin="round"/>
<path d="M193.875 280.673C193.875 280.673 187.476 285.866 191.823 288.281" stroke="black" stroke-width="4.83" stroke-miterlimit="10"/>
<path d="M188.925 275.841C188.925 275.841 177.825 282.123 187.356 288.282" stroke="black" stroke-width="4.83" stroke-miterlimit="10"/>
<path d="M185.181 271.011C185.181 271.011 170.448 277.911 181.8 288.282" stroke="black" stroke-width="4.83" stroke-miterlimit="10"/>
<path d="M247.137 288.282C247.137 288.282 265.011 288.282 265.251 271.011C265.491 253.74 230.592 210.372 208.008 204.339C185.424 198.306 184.455 214.839 184.455 215.517C184.455 216.195 183.129 223.317 188.925 230.916C193.401 236.79 213.171 251.454 221.943 257.826C222.265 258.06 222.508 258.387 222.64 258.763C222.772 259.139 222.787 259.546 222.681 259.93C222.576 260.315 222.356 260.658 222.052 260.914C221.746 261.171 221.371 261.328 220.974 261.366L182.178 265.092H182.154C181.788 265.158 168.096 267.684 163.926 271.974C163.926 271.974 161.589 273.705 162.798 276.363C164.007 279.021 167.721 278.145 167.823 278.046" stroke="black" stroke-width="4.83" stroke-miterlimit="10"/>
<path opacity="0.26" d="M150.141 213.999C152.809 213.999 154.971 211.836 154.971 209.169C154.971 206.501 152.809 204.339 150.141 204.339C147.473 204.339 145.311 206.501 145.311 209.169C145.311 211.836 147.473 213.999 150.141 213.999Z" fill="white"/>
<path opacity="0.26" d="M137.883 213.522C140.551 213.522 142.713 211.359 142.713 208.692C142.713 206.024 140.551 203.862 137.883 203.862C135.215 203.862 133.053 206.024 133.053 208.692C133.053 211.359 135.215 213.522 137.883 213.522Z" fill="white"/>
<path d="M179.634 275.238C177.936 274.764 175.161 274.338 172.302 275.256C170.904 275.707 169.614 276.441 168.513 277.413C168.273 277.623 168.042 277.836 167.82 278.049C167.341 278.519 166.89 279.014 166.467 279.534C166.411 279.603 166.332 279.649 166.245 279.663C165.18 279.81 158.169 280.92 158.205 284.463C158.238 287.646 161.724 288.168 162.924 288.252C162.973 288.257 163.023 288.251 163.07 288.236C163.117 288.22 163.161 288.194 163.198 288.161C163.235 288.128 163.264 288.087 163.285 288.042C163.306 287.997 163.316 287.948 163.317 287.898C163.317 286.764 163.575 283.209 166.38 279.633" stroke="black" stroke-width="4.83" stroke-miterlimit="10"/>
<path d="M116.466 250.233C117.288 256.86 112.137 259.857 106.506 260.301" stroke="black" stroke-width="4.83" stroke-miterlimit="10"/>
<path d="M98.322 258.918C96.1749 257.758 94.4358 255.967 93.3399 253.786C92.2443 251.605 91.845 249.141 92.196 246.726C93.096 240.351 98.496 235.461 103.782 232.359C114.882 225.846 139.896 230.559 144.099 231.519C147.321 232.257 150.015 229.737 151.107 228.519C151.153 228.467 151.213 228.43 151.28 228.412C151.347 228.393 151.418 228.394 151.484 228.415C151.551 228.435 151.61 228.474 151.654 228.527C151.699 228.58 151.728 228.645 151.737 228.714C154.044 242.214 180.837 260.538 187.035 264.639" stroke="black" stroke-width="4.83" stroke-miterlimit="10"/>
<path d="M123.225 245.65L114.354 251.155C113.825 251.484 113.234 251.699 112.617 251.785C112 251.871 111.372 251.827 110.774 251.656C110.175 251.485 109.619 251.19 109.141 250.79C108.663 250.391 108.275 249.896 108 249.337C107.505 248.333 107.407 247.179 107.725 246.106C108.043 245.033 108.754 244.119 109.716 243.547L123.216 235.504" stroke="black" stroke-width="4.83" stroke-miterlimit="10"/>
<path d="M150.141 213.999C152.809 213.999 154.971 211.836 154.971 209.169C154.971 206.501 152.809 204.339 150.141 204.339C147.473 204.339 145.311 206.501 145.311 209.169C145.311 211.836 147.473 213.999 150.141 213.999Z" stroke="black" stroke-width="4.83" stroke-miterlimit="10"/>
<path d="M137.883 212.799C140.151 212.799 141.99 210.96 141.99 208.692C141.99 206.423 140.151 204.585 137.883 204.585C135.615 204.585 133.776 206.423 133.776 208.692C133.776 210.96 135.615 212.799 137.883 212.799Z" stroke="white" stroke-width="4.83" stroke-miterlimit="10"/>
<path d="M137.883 213.522C140.551 213.522 142.713 211.359 142.713 208.692C142.713 206.024 140.551 203.862 137.883 203.862C135.215 203.862 133.053 206.024 133.053 208.692C133.053 211.359 135.215 213.522 137.883 213.522Z" stroke="black" stroke-width="4.83" stroke-miterlimit="10"/>
<path d="M145.335 208.692H142.713" stroke="black" stroke-width="4.83" stroke-miterlimit="10"/>
<path d="M145.335 215.517H143.607C143.498 215.517 143.391 215.494 143.293 215.447C143.194 215.401 143.107 215.334 143.038 215.25C142.968 215.166 142.918 215.069 142.891 214.963C142.864 214.858 142.861 214.748 142.881 214.641L144.024 208.692" stroke="black" stroke-width="4.83" stroke-miterlimit="10"/>
<path d="M110.664 232.002C110.664 232.002 104.505 233.331 102.333 242.631C101.013 248.277 99.201 255.48 97.983 260.268C97.8267 260.882 97.8129 261.524 97.9422 262.144C98.0718 262.765 98.3415 263.347 98.7303 263.848C99.1194 264.348 99.6174 264.753 100.186 265.031C100.756 265.31 101.381 265.455 102.015 265.455C102.961 265.455 103.879 265.133 104.618 264.541C105.356 263.949 105.871 263.123 106.077 262.2L108.654 250.638" stroke="black" stroke-width="4.83" stroke-miterlimit="10"/>
<path d="M116.295 253.741C116.295 253.741 122.76 249.877 135.495 253.741C148.23 257.605 162.87 260.227 167.7 249.979" stroke="black" stroke-width="4.83" stroke-miterlimit="10"/>
<path d="M172.305 275.256C172.305 275.256 176.805 280.392 174.069 288.282" stroke="black" stroke-width="4.83" stroke-miterlimit="10"/>
<path d="M23.604 211.389H94.704C96.9942 211.386 99.2187 212.153 101.019 213.568C102.82 214.983 104.092 216.963 104.631 219.189L115.95 266.067C116.255 267.331 116.27 268.649 115.992 269.92C115.715 271.192 115.152 272.384 114.347 273.406C113.542 274.429 112.516 275.255 111.345 275.823C110.175 276.391 108.89 276.687 107.589 276.687H36.672C34.3863 276.689 32.166 275.923 30.3675 274.513C28.5691 273.102 27.2965 271.128 26.754 268.908L15.252 222.039C14.9414 220.772 14.9228 219.452 15.1974 218.178C15.4721 216.903 16.0329 215.708 16.8374 214.682C17.6419 213.656 18.6691 212.827 19.8414 212.256C21.0137 211.685 22.3003 211.389 23.604 211.389Z" fill="#3FBDF1"/>
<path d="M26.193 213.406H92.901C95.0499 213.408 97.1358 214.132 98.8245 215.461C100.514 216.79 101.708 218.647 102.216 220.735L112.842 264.712C113.129 265.898 113.143 267.134 112.882 268.327C112.622 269.52 112.095 270.638 111.34 271.597C110.585 272.556 109.622 273.332 108.524 273.865C107.426 274.398 106.221 274.675 105 274.675H38.454C36.3117 274.67 34.2324 273.949 32.5473 272.627C30.8619 271.304 29.6675 269.455 29.154 267.376L18.354 223.396C18.0624 222.207 18.0448 220.969 18.3026 219.773C18.5604 218.577 19.0868 217.455 19.8421 216.493C20.5973 215.53 21.5615 214.752 22.6618 214.217C23.7621 213.683 24.9696 213.405 26.193 213.406Z" fill="#3FBDF1"/>
<path d="M23.604 211.389H94.704C96.9942 211.386 99.2187 212.153 101.019 213.568C102.82 214.983 104.092 216.963 104.631 219.189L115.95 266.067C116.255 267.331 116.27 268.649 115.992 269.92C115.715 271.192 115.152 272.384 114.347 273.406C113.542 274.429 112.516 275.255 111.345 275.823C110.175 276.391 108.89 276.687 107.589 276.687H36.672C34.3863 276.689 32.166 275.923 30.3675 274.513C28.5691 273.102 27.2965 271.128 26.754 268.908L15.252 222.039C14.9414 220.772 14.9228 219.452 15.1974 218.178C15.4721 216.903 16.0329 215.708 16.8374 214.682C17.6419 213.656 18.6691 212.827 19.8414 212.256C21.0137 211.685 22.3003 211.389 23.604 211.389Z" stroke="black" stroke-width="4.83" stroke-miterlimit="10"/>
<path d="M56.904 242.613L52.665 222.852C52.5771 222.434 52.3479 222.059 52.0164 221.79C51.6849 221.521 51.2712 221.374 50.844 221.373H29.868C29.5858 221.374 29.3075 221.439 29.0541 221.563C28.8008 221.687 28.579 221.867 28.4055 222.09C28.2321 222.312 28.1116 222.572 28.0531 222.848C27.9946 223.124 27.9997 223.409 28.068 223.683L32.973 243.675C33.0339 243.954 33.1638 244.213 33.351 244.428C33.519 244.642 33.7329 244.814 33.9771 244.933C34.2213 245.052 34.4895 245.114 34.761 245.115H34.8L55.101 244.875C55.3752 244.871 55.6449 244.807 55.8912 244.686C56.1375 244.566 56.3544 244.393 56.526 244.179C56.7009 243.962 56.8254 243.709 56.8908 243.439C56.9562 243.168 56.9607 242.886 56.904 242.613ZM29.469 223.329C29.4538 223.27 29.4523 223.208 29.4648 223.148C29.4773 223.088 29.5033 223.032 29.541 222.984C29.5795 222.934 29.629 222.893 29.6857 222.865C29.7423 222.837 29.8047 222.822 29.868 222.822H50.844C50.9385 222.822 51.0303 222.854 51.1035 222.914C51.177 222.973 51.2271 223.056 51.246 223.149L54.474 238.2C43.695 227.793 42.474 239.733 42.474 239.733C36.39 236.565 34.632 240.033 34.122 242.316L29.469 223.329Z" fill="#D7E8F0"/>
<path d="M35.5261 230.502C36.6961 230.139 37.2511 228.588 36.7711 227.037C36.2911 225.486 34.9501 224.526 33.7711 224.889C32.5921 225.252 32.0461 226.803 32.5291 228.351C33.0121 229.899 34.3591 230.865 35.5261 230.502Z" fill="#D7E8F0"/>
<path d="M40.6621 230.148H47.5441C48.3991 230.148 49.2571 230.148 50.1121 230.148H50.2351C50.4757 230.155 50.7151 230.11 50.9371 230.016C51.0904 229.94 51.2209 229.825 51.3148 229.682C51.409 229.539 51.4633 229.373 51.4726 229.202C51.4816 229.031 51.4453 228.861 51.367 228.709C51.2887 228.557 51.1714 228.428 51.0271 228.336C50.8654 228.262 50.7181 228.161 50.5921 228.036C50.5087 227.904 50.4514 227.758 50.4241 227.604C50.2651 227.17 49.9582 226.805 49.5571 226.575C49.2652 226.379 48.937 226.243 48.5914 226.177C48.2461 226.11 47.8909 226.114 47.5471 226.188C47.2078 226.274 46.8973 226.447 46.6471 226.692C46.4341 226.902 46.3921 227.184 46.2271 227.418C46.1191 227.571 46.0501 227.523 45.9031 227.439C45.7561 227.355 45.6751 227.292 45.5551 227.232C45.3184 227.105 45.0727 226.996 44.8201 226.905C44.3056 226.714 43.7569 226.634 43.2091 226.668C42.2461 226.743 41.2861 227.316 40.9501 228.222C40.6474 228.226 40.3558 228.338 40.1284 228.538C39.9007 228.737 39.7516 229.012 39.7081 229.311C39.6883 229.426 39.6958 229.545 39.73 229.657C39.7645 229.769 39.8248 229.872 39.9061 229.956C40.1248 230.113 40.3948 230.182 40.6621 230.148Z" fill="#D7E8F0"/>
<path d="M90.0001 229.721L89.4481 227.45C89.0779 225.924 88.2052 224.566 86.9698 223.595C85.7347 222.624 84.2092 222.097 82.6381 222.098H75.0571C74.1922 222.097 73.3387 222.296 72.5629 222.679C71.7874 223.062 71.1106 223.618 70.585 224.305C70.0597 224.992 69.7 225.792 69.5338 226.64C69.3676 227.489 69.3997 228.365 69.6271 229.199L70.2541 231.506C70.6546 232.991 71.5333 234.301 72.754 235.236C73.975 236.17 75.4696 236.676 77.0071 236.675H84.5431C85.3942 236.675 86.2342 236.481 86.9995 236.108C87.7648 235.735 88.4356 235.194 88.9609 234.524C89.4865 233.854 89.8531 233.074 90.0331 232.242C90.2131 231.41 90.2017 230.548 90.0001 229.721ZM81.6631 230.282L79.0741 231.875C78.9745 231.939 78.8614 231.978 78.7438 231.991C78.6262 232.003 78.5074 231.988 78.3967 231.947C78.286 231.905 78.1864 231.839 78.1054 231.753C78.0247 231.666 77.965 231.562 77.9311 231.449L76.9561 228.263C76.9153 228.122 76.9153 227.972 76.9564 227.83C76.9975 227.689 77.0779 227.562 77.188 227.465C77.2984 227.368 77.4343 227.303 77.5795 227.28C77.725 227.257 77.8738 227.275 78.0091 227.333L81.6001 228.92C81.7285 228.978 81.8386 229.07 81.9184 229.186C81.9979 229.302 82.0441 229.438 82.0519 229.579C82.0597 229.719 82.0285 229.859 81.9622 229.983C81.8956 230.107 81.7963 230.211 81.6751 230.282H81.6631Z" fill="white"/>
<path d="M88.308 250.121H75.045C74.4378 250.121 73.8441 249.943 73.3359 249.611C72.8277 249.278 72.4272 248.805 72.183 248.249C72.1074 248.078 72.0666 247.894 72.063 247.706C72.0663 247.345 72.2118 246.999 72.4686 246.744C72.7254 246.489 73.0722 246.345 73.434 246.344H87.534C86.871 247.466 87.207 249.017 88.308 250.121Z" fill="#D7E8F0"/>
<path d="M96.9 248.759C96.8991 249.121 96.7554 249.467 96.5001 249.722C96.2451 249.977 95.8989 250.121 95.538 250.121H88.308C87.207 249.017 86.871 247.466 87.534 246.344H93.9C94.5063 246.345 95.0991 246.521 95.6073 246.852C96.1152 247.182 96.5163 247.653 96.762 248.207C96.8451 248.38 96.8919 248.568 96.9 248.759Z" fill="#3FBDF1"/>
<path d="M93.5671 250.122C93.5296 250.194 93.4863 250.263 93.438 250.329C92.49 251.622 90.438 251.742 88.845 250.578C88.6548 250.44 88.4751 250.287 88.308 250.122C87.207 249.018 86.871 247.467 87.534 246.345C87.5712 246.273 87.6144 246.205 87.663 246.141C88.602 244.839 90.663 244.725 92.247 245.88C92.439 246.021 92.6205 246.177 92.79 246.345C93.9 247.449 94.2211 249 93.5671 250.122Z" fill="white"/>
<path d="M100.221 257.1C100.218 257.462 100.072 257.808 99.8154 258.063C99.5586 258.318 99.2118 258.462 98.85 258.462H46.284C46.956 257.334 46.62 255.789 45.516 254.688H97.239C97.8456 254.688 98.4393 254.865 98.9469 255.197C99.4548 255.529 99.8547 256.002 100.098 256.557C100.176 256.728 100.218 256.913 100.221 257.1Z" fill="#3FBDF1"/>
<path d="M46.2841 258.447H39.7351C39.1288 258.447 38.5357 258.271 38.0275 257.94C37.5196 257.61 37.1185 257.139 36.8731 256.584C36.796 256.41 36.7552 256.222 36.7531 256.032C36.7528 255.853 36.7876 255.676 36.856 255.511C36.9244 255.346 37.0246 255.196 37.1512 255.069C37.2778 254.943 37.4281 254.843 37.5937 254.775C37.759 254.707 37.9363 254.673 38.1151 254.673H45.5161C46.6201 255.774 46.9561 257.319 46.2841 258.447Z" fill="#D7E8F0"/>
<path d="M46.284 258.447C46.2531 258.521 46.2129 258.59 46.164 258.654C45.225 259.956 43.164 260.067 41.577 258.912C41.3859 258.77 41.2053 258.615 41.037 258.447C39.942 257.343 39.606 255.801 40.26 254.673C40.2963 254.6 40.3395 254.531 40.389 254.466C41.337 253.173 43.389 253.053 44.982 254.214C45.1722 254.352 45.3507 254.506 45.516 254.673C46.62 255.774 46.956 257.319 46.284 258.447Z" fill="white"/>
<path d="M50.922 266.7H42.6C41.994 266.7 41.4009 266.524 40.893 266.193C40.3851 265.862 39.984 265.391 39.738 264.837C39.6555 264.67 39.6084 264.487 39.6 264.3C39.6009 263.938 39.7452 263.591 40.0017 263.334C40.2579 263.078 40.6053 262.933 40.968 262.932H50.139C49.5 264.066 49.827 265.608 50.922 266.7Z" fill="#3FBDF1"/>
<path d="M103.074 265.36C103.069 265.72 102.922 266.063 102.664 266.314C102.407 266.566 102.06 266.705 101.7 266.701H50.922C49.827 265.597 49.491 264.055 50.145 262.927H100.092C100.699 262.926 101.292 263.103 101.8 263.435C102.308 263.767 102.708 264.24 102.951 264.796C103.031 264.973 103.072 265.165 103.074 265.36Z" fill="#D7E8F0"/>
<path d="M56.178 266.7C56.1417 266.773 56.0985 266.842 56.049 266.907C55.11 268.209 53.049 268.32 51.465 267.165C51.273 267.024 51.0915 266.869 50.922 266.7C49.827 265.596 49.491 264.054 50.145 262.926C50.1825 262.854 50.2257 262.785 50.274 262.719C51.222 261.426 53.274 261.312 54.867 262.467C55.0578 262.605 55.2363 262.759 55.401 262.926C56.505 264.039 56.841 265.59 56.178 266.7Z" fill="white"/>
<g opacity="0.21">
<path opacity="0.21" d="M57.63 243.335L53.4 223.574C53.3124 223.156 53.0835 222.781 52.7517 222.513C52.4202 222.244 52.0059 222.097 51.579 222.098H30.6C30.3159 222.098 30.0357 222.163 29.7809 222.289C29.526 222.414 29.3033 222.596 29.13 222.821C28.9582 223.042 28.8391 223.299 28.7819 223.572C28.7247 223.846 28.7309 224.129 28.8 224.399L33.705 244.394C33.765 244.673 33.8937 244.932 34.08 245.147C34.2486 245.361 34.4634 245.533 34.7079 245.652C34.9527 245.77 35.2212 245.831 35.493 245.831H35.541L55.839 245.588C56.1126 245.585 56.382 245.521 56.6277 245.401C56.8737 245.282 57.09 245.109 57.261 244.895C57.4335 244.678 57.5559 244.426 57.6198 244.156C57.6834 243.887 57.687 243.607 57.63 243.335ZM30.192 224.054C30.1767 223.995 30.1755 223.933 30.1887 223.873C30.2016 223.813 30.2286 223.757 30.267 223.709C30.3045 223.659 30.3534 223.618 30.4098 223.59C30.4659 223.562 30.528 223.547 30.591 223.547H51.567C51.6615 223.547 51.7533 223.579 51.8271 223.637C51.9009 223.696 51.9519 223.779 51.972 223.871L55.2 238.922C44.418 228.512 43.2 240.455 43.2 240.455C37.119 237.287 35.358 240.755 34.851 243.038L30.192 224.054Z" fill="#D7E8F0"/>
<path opacity="0.21" d="M36.2521 231.225C37.4191 230.862 37.9771 229.311 37.4941 227.763C37.0111 226.215 35.6761 225.249 34.4941 225.612C33.3121 225.975 32.7691 227.526 33.2491 229.077C33.7291 230.628 35.1001 231.6 36.2521 231.225Z" fill="#D7E8F0"/>
<path opacity="0.21" d="M41.4001 230.873H48.2791C49.1371 230.873 49.9921 230.873 50.8501 230.873H50.9701C51.211 230.88 51.4501 230.835 51.6721 230.741C51.8263 230.666 51.9574 230.551 52.0519 230.408C52.1467 230.265 52.2016 230.099 52.2106 229.928C52.2199 229.756 52.183 229.586 52.1041 229.433C52.0255 229.281 51.9073 229.153 51.7621 229.061C51.6019 228.985 51.4552 228.884 51.3271 228.761C51.2461 228.627 51.1894 228.48 51.1591 228.326C51.0001 227.893 50.6944 227.53 50.2951 227.3C50.0032 227.103 49.6741 226.967 49.3282 226.901C48.9823 226.834 48.6265 226.838 48.2821 226.913C47.9485 226.999 47.644 227.173 47.4001 227.417C47.1841 227.627 47.1451 227.906 46.9801 228.143C46.8721 228.296 46.8031 228.248 46.6561 228.161C46.5091 228.074 46.4281 228.017 46.3081 227.954C46.0714 227.828 45.8257 227.72 45.5731 227.63C45.0586 227.439 44.5099 227.357 43.9621 227.39C42.9991 227.465 42.0391 228.041 41.7001 228.944C41.3974 228.949 41.1064 229.062 40.8793 229.262C40.6522 229.462 40.504 229.737 40.4611 230.036C40.4416 230.152 40.4494 230.27 40.483 230.382C40.5169 230.493 40.576 230.596 40.6561 230.681C40.8727 230.833 41.137 230.901 41.4001 230.873Z" fill="#D7E8F0"/>
<path opacity="0.21" d="M90.738 230.444L90.186 228.176C89.8152 226.649 88.9419 225.291 87.7065 224.319C86.4708 223.348 84.9447 222.821 83.373 222.821H75.78C74.916 222.821 74.0637 223.019 73.2888 223.402C72.5139 223.784 71.8377 224.34 71.3127 225.026C70.7874 225.711 70.4274 226.509 70.2603 227.357C70.0935 228.205 70.1241 229.08 70.35 229.913L70.977 232.223C71.3781 233.708 72.2574 235.019 73.4787 235.953C74.7 236.888 76.1952 237.393 77.733 237.392H85.269C86.1204 237.393 86.9607 237.2 87.7266 236.828C88.4925 236.456 89.1642 235.915 89.6907 235.246C90.2175 234.577 90.5853 233.798 90.7665 232.966C90.948 232.134 90.9384 231.272 90.738 230.444ZM82.398 230.999L79.8 232.601C79.7004 232.665 79.5876 232.704 79.4703 232.716C79.353 232.729 79.2345 232.714 79.1238 232.672C79.0134 232.631 78.9138 232.565 78.8334 232.479C78.753 232.392 78.6936 232.288 78.66 232.175L77.7 228.986C77.6598 228.845 77.6604 228.696 77.7018 228.555C77.7432 228.414 77.8236 228.288 77.934 228.19C78.0441 228.093 78.1794 228.03 78.3246 228.006C78.4695 227.983 78.618 228.002 78.753 228.059L82.317 229.643C82.4436 229.702 82.5516 229.794 82.6302 229.909C82.7088 230.024 82.7547 230.158 82.7628 230.297C82.7712 230.436 82.7418 230.575 82.6773 230.699C82.6131 230.822 82.5165 230.926 82.398 230.999Z" fill="#D7E8F0"/>
<path opacity="0.21" d="M89.034 250.844H75.771C75.1644 250.843 74.571 250.665 74.0628 250.334C73.5549 250.002 73.1541 249.53 72.909 248.975C72.8154 248.768 72.7758 248.54 72.7938 248.314C72.8115 248.087 72.8865 247.869 73.0113 247.679C73.1358 247.489 73.3065 247.333 73.5075 247.227C73.7082 247.12 73.9326 247.066 74.16 247.07H88.26C87.6 248.189 87.93 249.743 89.034 250.844Z" fill="#D7E8F0"/>
<path opacity="0.21" d="M97.6081 249.482C97.6081 249.843 97.465 250.189 97.2103 250.444C96.9556 250.699 96.6097 250.843 96.2491 250.844H89.0341C87.9301 249.743 87.5941 248.189 88.2571 247.07H94.6261C95.2324 247.07 95.8258 247.245 96.334 247.576C96.8422 247.907 97.243 248.378 97.4881 248.933C97.5649 249.106 97.6057 249.293 97.6081 249.482Z" fill="#3FBDF1"/>
<path opacity="0.21" d="M94.2901 250.844C94.2547 250.918 94.2115 250.987 94.1611 251.051C93.2131 252.344 91.1611 252.464 89.5681 251.303C89.3785 251.164 89.2 251.011 89.0341 250.844C87.9301 249.743 87.5941 248.189 88.2571 247.07C88.2946 246.998 88.3387 246.928 88.3891 246.863C89.3281 245.561 91.3891 245.45 92.9731 246.605C93.1654 246.747 93.3469 246.902 93.5161 247.07C94.6111 248.174 94.9471 249.716 94.2901 250.844Z" fill="white"/>
<path opacity="0.21" d="M100.944 257.81C100.941 258.171 100.795 258.517 100.538 258.772C100.282 259.026 99.9346 259.169 99.5731 259.169H47.0101C47.6821 258.041 47.3461 256.499 46.2421 255.395H97.9621C98.5696 255.395 99.1639 255.572 99.6721 255.904C100.181 256.237 100.581 256.71 100.824 257.267C100.901 257.438 100.942 257.623 100.944 257.81Z" fill="#3FBDF1"/>
<path opacity="0.21" d="M47.0101 259.169H40.4581C39.8524 259.168 39.2596 258.993 38.7517 258.663C38.2438 258.332 37.8424 257.862 37.5961 257.309C37.5208 257.134 37.48 256.947 37.4761 256.757C37.4761 256.396 37.6195 256.049 37.8751 255.794C38.1304 255.538 38.4769 255.395 38.8381 255.395H46.2421C47.3461 256.499 47.6821 258.041 47.0101 259.169Z" fill="#D7E8F0"/>
<path opacity="0.21" d="M47.01 259.17C46.9791 259.244 46.9377 259.314 46.887 259.377C45.948 260.679 43.887 260.793 42.303 259.638C42.1107 259.495 41.9292 259.339 41.76 259.17C40.665 258.069 40.329 256.524 40.986 255.396C41.0214 255.322 41.0646 255.253 41.115 255.189C42.063 253.896 44.115 253.776 45.708 254.94C45.8967 255.079 46.0752 255.231 46.242 255.396C47.346 256.5 47.682 258.042 47.01 259.17Z" fill="white"/>
<path opacity="0.21" d="M51.645 267.434H43.311C42.7053 267.433 42.1131 267.257 41.6052 266.927C41.0976 266.597 40.6959 266.127 40.449 265.574C40.3737 265.403 40.3329 265.218 40.329 265.031C40.3305 264.668 40.4754 264.32 40.7322 264.064C40.989 263.807 41.337 263.662 41.7 263.66H50.871C50.214 264.788 50.55 266.333 51.645 267.434Z" fill="#3FBDF1"/>
<path opacity="0.21" d="M103.8 266.081C103.8 266.26 103.764 266.436 103.695 266.6C103.627 266.765 103.526 266.915 103.4 267.04C103.273 267.166 103.123 267.266 102.958 267.333C102.793 267.401 102.616 267.435 102.438 267.434H51.645C50.55 266.333 50.214 264.788 50.871 263.66H100.815C101.423 263.66 102.017 263.837 102.525 264.17C103.033 264.502 103.434 264.976 103.677 265.532C103.755 265.705 103.797 265.892 103.8 266.081Z" fill="#D7E8F0"/>
<path opacity="0.21" d="M56.904 267.435C56.8665 267.508 56.8224 267.577 56.772 267.642C55.833 268.944 53.772 269.058 52.188 267.903C51.9957 267.76 51.8142 267.604 51.645 267.435C50.55 266.334 50.214 264.789 50.871 263.661C50.9064 263.587 50.9496 263.518 51 263.454C51.948 262.161 54 262.05 55.593 263.205C55.7817 263.344 55.9602 263.496 56.127 263.661C57.231 264.765 57.567 266.316 56.904 267.435Z" fill="white"/>
</g>
</svg>
