<svg width="40" height="40" viewBox="0 0 40 40" fill="none" xmlns="http://www.w3.org/2000/svg">
<path d="M13.379 32.2079C13.379 32.3734 13.1935 32.5057 12.9597 32.5057C12.6935 32.5305 12.5081 32.3982 12.5081 32.2079C12.5081 32.0425 12.6935 31.9102 12.9274 31.9102C13.1694 31.8854 13.379 32.0177 13.379 32.2079ZM10.871 31.8357C10.8145 32.0012 10.9758 32.1914 11.2177 32.241C11.4274 32.3237 11.6694 32.241 11.7177 32.0756C11.7661 31.9102 11.6129 31.7199 11.371 31.6455C11.1613 31.5876 10.9274 31.6703 10.871 31.8357ZM14.4355 31.6951C14.2016 31.753 14.0403 31.9102 14.0645 32.1004C14.0887 32.2658 14.2984 32.3734 14.5403 32.3155C14.7742 32.2576 14.9355 32.1004 14.9113 31.935C14.8871 31.7778 14.6694 31.6703 14.4355 31.6951ZM19.7419 0C8.55645 0 0 8.70954 0 20.1817C0 29.3544 5.62903 37.2037 13.6694 39.9663C14.7016 40.1565 15.0645 39.5031 15.0645 38.9655C15.0645 38.4527 15.0403 35.6239 15.0403 33.887C15.0403 33.887 9.39516 35.1277 8.20968 31.4222C8.20968 31.4222 7.29032 29.0153 5.96774 28.3949C5.96774 28.3949 4.12097 27.0964 6.09677 27.1212C6.09677 27.1212 8.10484 27.2866 9.20968 29.2551C10.9758 32.4478 13.9355 31.5297 15.0887 30.9838C15.2742 29.6604 15.7984 28.7423 16.379 28.1964C11.871 27.6836 7.32258 27.0136 7.32258 19.0568C7.32258 16.7822 7.93548 15.6408 9.22581 14.1851C9.01613 13.6474 8.33064 11.4308 9.43548 8.56893C11.121 8.03131 15 10.8021 15 10.8021C16.6129 10.339 18.3468 10.0991 20.0645 10.0991C21.7823 10.0991 23.5161 10.339 25.129 10.8021C25.129 10.8021 29.0081 8.02304 30.6935 8.56893C31.7984 11.439 31.1129 13.6474 30.9032 14.1851C32.1936 15.6491 32.9839 16.7905 32.9839 19.0568C32.9839 27.0385 28.2339 27.6753 23.7258 28.1964C24.4677 28.8498 25.0968 30.0905 25.0968 32.0342C25.0968 34.8216 25.0726 38.2707 25.0726 38.9489C25.0726 39.4866 25.4435 40.14 26.4677 39.9498C34.5323 37.2037 40 29.3544 40 20.1817C40 8.70954 30.9274 0 19.7419 0ZM7.83871 28.5273C7.73387 28.61 7.75806 28.8002 7.89516 28.9574C8.02419 29.0897 8.20968 29.1476 8.31452 29.0401C8.41935 28.9574 8.39516 28.7671 8.25806 28.61C8.12903 28.4776 7.94355 28.4197 7.83871 28.5273ZM6.96774 27.8573C6.91129 27.9648 6.99194 28.0972 7.15323 28.1799C7.28226 28.2626 7.44355 28.2378 7.5 28.122C7.55645 28.0145 7.47581 27.8821 7.31452 27.7994C7.15323 27.7498 7.02419 27.7746 6.96774 27.8573ZM9.58065 30.8018C9.45161 30.9094 9.5 31.1575 9.68548 31.3147C9.87097 31.5049 10.1048 31.5297 10.2097 31.3974C10.3145 31.2898 10.2661 31.0417 10.1048 30.8846C9.92742 30.6943 9.68548 30.6695 9.58065 30.8018ZM8.66129 29.586C8.53226 29.6687 8.53226 29.8837 8.66129 30.074C8.79032 30.2642 9.00806 30.3469 9.1129 30.2642C9.24193 30.1567 9.24193 29.9416 9.1129 29.7514C9 29.5612 8.79032 29.4785 8.66129 29.586Z" fill="white"/>
</svg>
