<svg width="25" height="21" viewBox="0 0 25 21" fill="none" xmlns="http://www.w3.org/2000/svg">
<path d="M12.1688 5.82387L4.16658 12.4146V19.5279C4.16658 19.712 4.23975 19.8887 4.36998 20.0189C4.50022 20.1491 4.67685 20.2223 4.86103 20.2223L9.72474 20.2097C9.90832 20.2088 10.0841 20.1352 10.2135 20.0051C10.343 19.875 10.4157 19.6989 10.4157 19.5153V15.3612C10.4157 15.177 10.4889 15.0004 10.6191 14.8701C10.7493 14.7399 10.926 14.6667 11.1102 14.6667H13.8879C14.0721 14.6667 14.2488 14.7399 14.379 14.8701C14.5092 15.0004 14.5824 15.177 14.5824 15.3612V19.5122C14.5821 19.6036 14.5998 19.6941 14.6346 19.7787C14.6694 19.8632 14.7205 19.94 14.785 20.0047C14.8495 20.0694 14.9262 20.1207 15.0106 20.1558C15.095 20.1908 15.1854 20.2088 15.2768 20.2088L20.1388 20.2223C20.323 20.2223 20.4996 20.1491 20.6299 20.0189C20.7601 19.8887 20.8333 19.712 20.8333 19.5279V12.4098L12.8328 5.82387C12.7388 5.74805 12.6216 5.70671 12.5008 5.70671C12.38 5.70671 12.2628 5.74805 12.1688 5.82387ZM24.8089 10.3035L21.1805 7.31258V1.30086C21.1805 1.16273 21.1256 1.03025 21.0279 0.932578C20.9303 0.834903 20.7978 0.780029 20.6596 0.780029H18.2291C18.091 0.780029 17.9585 0.834903 17.8608 0.932578C17.7631 1.03025 17.7083 1.16273 17.7083 1.30086V4.45234L13.8224 1.25529C13.4495 0.948423 12.9816 0.780643 12.4986 0.780643C12.0157 0.780643 11.5477 0.948423 11.1748 1.25529L0.188286 10.3035C0.135546 10.3471 0.0919125 10.4006 0.0598778 10.4611C0.027843 10.5215 0.00803527 10.5877 0.00158622 10.6558C-0.00486283 10.7239 0.00217325 10.7927 0.0222924 10.8581C0.0424116 10.9235 0.0752195 10.9843 0.118842 11.037L1.22561 12.3825C1.26912 12.4354 1.32262 12.4792 1.38308 12.5113C1.44353 12.5435 1.50974 12.5635 1.57791 12.5701C1.64608 12.5766 1.71488 12.5697 1.78037 12.5496C1.84586 12.5296 1.90675 12.4968 1.95955 12.4532L12.1688 4.04435C12.2628 3.96854 12.38 3.9272 12.5008 3.9272C12.6216 3.9272 12.7388 3.96854 12.8328 4.04435L23.0425 12.4532C23.0952 12.4968 23.156 12.5296 23.2214 12.5498C23.2868 12.5699 23.3555 12.5769 23.4236 12.5705C23.4917 12.564 23.5579 12.5442 23.6184 12.5122C23.6788 12.4801 23.7324 12.4365 23.776 12.3838L24.8827 11.0383C24.9263 10.9853 24.959 10.9242 24.9789 10.8585C24.9987 10.7928 25.0054 10.7238 24.9986 10.6555C24.9917 10.5872 24.9714 10.521 24.9389 10.4606C24.9064 10.4002 24.8622 10.3468 24.8089 10.3035Z" fill="current"/>
</svg>
