<svg width="25" height="21" viewBox="0 0 25 21" fill="none" xmlns="http://www.w3.org/2000/svg">
<path d="M8.75 10.5C9.73891 10.5 10.7056 10.2068 11.5279 9.65735C12.3501 9.10794 12.991 8.32705 13.3694 7.41342C13.7478 6.49979 13.8469 5.49446 13.6539 4.52455C13.461 3.55465 12.9848 2.66373 12.2855 1.96447C11.5863 1.26521 10.6954 0.789002 9.72545 0.596076C8.75555 0.40315 7.75021 0.502166 6.83658 0.880605C5.92295 1.25904 5.14206 1.89991 4.59265 2.72215C4.04324 3.5444 3.75 4.5111 3.75 5.5C3.75 6.82608 4.27678 8.09785 5.21447 9.03554C6.15215 9.97322 7.42392 10.5 8.75 10.5ZM12.5 13C12.5028 12.5825 12.6117 12.1725 12.8164 11.8086C12.6289 11.7891 12.4453 11.75 12.25 11.75H11.5977C10.7048 12.1618 9.73324 12.375 8.75 12.375C7.76676 12.375 6.79522 12.1618 5.90234 11.75H5.25C3.85771 11.7503 2.52253 12.3035 1.53803 13.288C0.553534 14.2725 0.000310675 15.6077 0 17L0 18.625C0 19.1223 0.197544 19.5992 0.549175 19.9508C0.900805 20.3025 1.37772 20.5 1.875 20.5H12.8477C12.623 20.1215 12.503 19.6901 12.5 19.25V13ZM23.75 11.75H22.5V8.625C22.5 7.7962 22.1708 7.00134 21.5847 6.41529C20.9987 5.82924 20.2038 5.5 19.375 5.5C18.5462 5.5 17.7513 5.82924 17.1653 6.41529C16.5792 7.00134 16.25 7.7962 16.25 8.625V11.75H15C14.6685 11.75 14.3505 11.8817 14.1161 12.1161C13.8817 12.3505 13.75 12.6685 13.75 13V19.25C13.75 19.5815 13.8817 19.8995 14.1161 20.1339C14.3505 20.3683 14.6685 20.5 15 20.5H23.75C24.0815 20.5 24.3995 20.3683 24.6339 20.1339C24.8683 19.8995 25 19.5815 25 19.25V13C25 12.6685 24.8683 12.3505 24.6339 12.1161C24.3995 11.8817 24.0815 11.75 23.75 11.75ZM19.375 17.375C19.1278 17.375 18.8861 17.3017 18.6805 17.1643C18.475 17.027 18.3148 16.8318 18.2202 16.6034C18.1255 16.3749 18.1008 16.1236 18.149 15.8811C18.1972 15.6387 18.3163 15.4159 18.4911 15.2411C18.6659 15.0663 18.8887 14.9473 19.1311 14.899C19.3736 14.8508 19.6249 14.8755 19.8534 14.9702C20.0818 15.0648 20.277 15.225 20.4143 15.4305C20.5517 15.6361 20.625 15.8778 20.625 16.125C20.625 16.4565 20.4933 16.7745 20.2589 17.0089C20.0245 17.2433 19.7065 17.375 19.375 17.375ZM20.625 11.75H18.125V8.625C18.125 8.29348 18.2567 7.97554 18.4911 7.74112C18.7255 7.5067 19.0435 7.375 19.375 7.375C19.7065 7.375 20.0245 7.5067 20.2589 7.74112C20.4933 7.97554 20.625 8.29348 20.625 8.625V11.75Z" fill="current"/>
</svg>
