<svg width="34" height="40" viewBox="0 0 34 40" fill="none" xmlns="http://www.w3.org/2000/svg">
<path d="M34 28.125V1.875C34 0.835937 33.1879 0 32.1786 0H7.28571C3.26339 0 0 3.35938 0 7.5V32.5C0 36.6406 3.26339 40 7.28571 40H32.1786C33.1879 40 34 39.1641 34 38.125V36.875C34 36.2891 33.7344 35.7578 33.3246 35.4141C33.0058 34.2109 33.0058 30.7813 33.3246 29.5781C33.7344 29.2422 34 28.7109 34 28.125ZM9.71429 10.4688C9.71429 10.2109 9.9192 10 10.1696 10H26.2589C26.5094 10 26.7143 10.2109 26.7143 10.4688V12.0312C26.7143 12.2891 26.5094 12.5 26.2589 12.5H10.1696C9.9192 12.5 9.71429 12.2891 9.71429 12.0312V10.4688ZM9.71429 15.4688C9.71429 15.2109 9.9192 15 10.1696 15H26.2589C26.5094 15 26.7143 15.2109 26.7143 15.4688V17.0312C26.7143 17.2891 26.5094 17.5 26.2589 17.5H10.1696C9.9192 17.5 9.71429 17.2891 9.71429 17.0312V15.4688ZM28.9455 35H7.28571C5.94241 35 4.85714 33.8828 4.85714 32.5C4.85714 31.125 5.95 30 7.28571 30H28.9455C28.8013 31.3359 28.8013 33.6641 28.9455 35Z" fill="black"/>
</svg>
