<svg width="25" height="25" viewBox="0 0 25 25" fill="none" xmlns="http://www.w3.org/2000/svg">
<path d="M24.3116 6.93848L22.0606 9.18945C21.8311 9.41895 21.46 9.41895 21.2305 9.18945L15.8106 3.76953C15.5811 3.54004 15.5811 3.16895 15.8106 2.93945L18.0616 0.688477C18.9747 -0.224609 20.459 -0.224609 21.377 0.688477L24.3116 3.62305C25.2296 4.53613 25.2296 6.02051 24.3116 6.93848ZM13.877 4.87305L1.05475 17.6953L0.019595 23.6279C-0.122007 24.4287 0.576236 25.1221 1.37702 24.9854L7.30963 23.9453L20.1319 11.123C20.3614 10.8936 20.3614 10.5225 20.1319 10.293L14.712 4.87305C14.4776 4.64356 14.1065 4.64356 13.877 4.87305ZM6.05963 16.5967C5.79108 16.3281 5.79108 15.8984 6.05963 15.6299L13.5792 8.11035C13.8477 7.8418 14.2774 7.8418 14.546 8.11035C14.8145 8.37891 14.8145 8.80859 14.546 9.07715L7.02643 16.5967C6.75788 16.8652 6.32819 16.8652 6.05963 16.5967ZM4.29694 20.7031H6.64069V22.4756L3.49127 23.0273L1.97272 21.5088L2.52448 18.3594H4.29694V20.7031Z" fill="#F5F5F5"/>
</svg>
