<svg width="25" height="19" viewBox="0 0 25 19" fill="none" xmlns="http://www.w3.org/2000/svg">
<path d="M3.75 8.25C5.12891 8.25 6.25 7.12891 6.25 5.75C6.25 4.37109 5.12891 3.25 3.75 3.25C2.37109 3.25 1.25 4.37109 1.25 5.75C1.25 7.12891 2.37109 8.25 3.75 8.25ZM21.25 8.25C22.6289 8.25 23.75 7.12891 23.75 5.75C23.75 4.37109 22.6289 3.25 21.25 3.25C19.8711 3.25 18.75 4.37109 18.75 5.75C18.75 7.12891 19.8711 8.25 21.25 8.25ZM22.5 9.5H20C19.3125 9.5 18.6914 9.77734 18.2383 10.2266C19.8125 11.0898 20.9297 12.6484 21.1719 14.5H23.75C24.4414 14.5 25 13.9414 25 13.25V12C25 10.6211 23.8789 9.5 22.5 9.5ZM12.5 9.5C14.918 9.5 16.875 7.54297 16.875 5.125C16.875 2.70703 14.918 0.75 12.5 0.75C10.082 0.75 8.125 2.70703 8.125 5.125C8.125 7.54297 10.082 9.5 12.5 9.5ZM15.5 10.75H15.1758C14.3633 11.1406 13.4609 11.375 12.5 11.375C11.5391 11.375 10.6406 11.1406 9.82422 10.75H9.5C7.01562 10.75 5 12.7656 5 15.25V16.375C5 17.4102 5.83984 18.25 6.875 18.25H18.125C19.1602 18.25 20 17.4102 20 16.375V15.25C20 12.7656 17.9844 10.75 15.5 10.75ZM6.76172 10.2266C6.30859 9.77734 5.6875 9.5 5 9.5H2.5C1.12109 9.5 0 10.6211 0 12V13.25C0 13.9414 0.558594 14.5 1.25 14.5H3.82422C4.07031 12.6484 5.1875 11.0898 6.76172 10.2266Z" fill="#A5A5A5"/>
</svg>
