<svg width="23" height="25" viewBox="0 0 23 25" fill="none" xmlns="http://www.w3.org/2000/svg">
<path d="M2.125 22.6563C2.125 23.2779 2.37193 23.874 2.81147 24.3135C3.25101 24.7531 3.84715 25 4.46875 25H18.5312C19.1529 25 19.749 24.7531 20.1885 24.3135C20.6281 23.874 20.875 23.2779 20.875 22.6563V6.25001H2.125V22.6563ZM15.4062 10.1563C15.4062 9.94906 15.4886 9.75034 15.6351 9.60383C15.7816 9.45732 15.9803 9.37501 16.1875 9.37501C16.3947 9.37501 16.5934 9.45732 16.7399 9.60383C16.8864 9.75034 16.9688 9.94906 16.9688 10.1563V21.0938C16.9688 21.301 16.8864 21.4997 16.7399 21.6462C16.5934 21.7927 16.3947 21.875 16.1875 21.875C15.9803 21.875 15.7816 21.7927 15.6351 21.6462C15.4886 21.4997 15.4062 21.301 15.4062 21.0938V10.1563ZM10.7188 10.1563C10.7188 9.94906 10.8011 9.75034 10.9476 9.60383C11.0941 9.45732 11.2928 9.37501 11.5 9.37501C11.7072 9.37501 11.9059 9.45732 12.0524 9.60383C12.1989 9.75034 12.2812 9.94906 12.2812 10.1563V21.0938C12.2812 21.301 12.1989 21.4997 12.0524 21.6462C11.9059 21.7927 11.7072 21.875 11.5 21.875C11.2928 21.875 11.0941 21.7927 10.9476 21.6462C10.8011 21.4997 10.7188 21.301 10.7188 21.0938V10.1563ZM6.03125 10.1563C6.03125 9.94906 6.11356 9.75034 6.26007 9.60383C6.40659 9.45732 6.6053 9.37501 6.8125 9.37501C7.0197 9.37501 7.21841 9.45732 7.36493 9.60383C7.51144 9.75034 7.59375 9.94906 7.59375 10.1563V21.0938C7.59375 21.301 7.51144 21.4997 7.36493 21.6462C7.21841 21.7927 7.0197 21.875 6.8125 21.875C6.6053 21.875 6.40659 21.7927 6.26007 21.6462C6.11356 21.4997 6.03125 21.301 6.03125 21.0938V10.1563ZM21.6562 1.56251H15.7969L15.3379 0.649423C15.2407 0.454215 15.0909 0.29001 14.9054 0.175281C14.72 0.0605526 14.5062 -0.00014785 14.2881 8.5609e-06H8.70703C8.48944 -0.000827891 8.27602 0.0596463 8.09121 0.174503C7.90641 0.289359 7.75769 0.453951 7.66211 0.649423L7.20312 1.56251H1.34375C1.13655 1.56251 0.937836 1.64482 0.791323 1.79133C0.64481 1.93784 0.5625 2.13656 0.5625 2.34376L0.5625 3.90626C0.5625 4.11346 0.64481 4.31217 0.791323 4.45869C0.937836 4.6052 1.13655 4.68751 1.34375 4.68751H21.6562C21.8635 4.68751 22.0622 4.6052 22.2087 4.45869C22.3552 4.31217 22.4375 4.11346 22.4375 3.90626V2.34376C22.4375 2.13656 22.3552 1.93784 22.2087 1.79133C22.0622 1.64482 21.8635 1.56251 21.6562 1.56251Z" fill="#A5A5A5"/>
</svg>
