<svg width="23" height="25" viewBox="0 0 23 25" fill="none" xmlns="http://www.w3.org/2000/svg">
<path d="M21.6562 1.56251H15.7969L15.3379 0.649423C15.2407 0.454215 15.0909 0.29001 14.9054 0.175281C14.72 0.0605526 14.5062 -0.00014785 14.2881 8.5609e-06H8.70703C8.48944 -0.000827891 8.27602 0.0596463 8.09121 0.174503C7.90641 0.289359 7.75769 0.453951 7.66211 0.649423L7.20312 1.56251H1.34375C1.13655 1.56251 0.937836 1.64482 0.791323 1.79133C0.64481 1.93784 0.5625 2.13656 0.5625 2.34376L0.5625 3.90626C0.5625 4.11346 0.64481 4.31217 0.791323 4.45869C0.937836 4.6052 1.13655 4.68751 1.34375 4.68751H21.6562C21.8635 4.68751 22.0622 4.6052 22.2087 4.45869C22.3552 4.31217 22.4375 4.11346 22.4375 3.90626V2.34376C22.4375 2.13656 22.3552 1.93784 22.2087 1.79133C22.0622 1.64482 21.8635 1.56251 21.6562 1.56251V1.56251ZM3.16016 22.8027C3.19742 23.3978 3.46004 23.9562 3.89456 24.3644C4.32908 24.7727 4.90283 24.9999 5.49902 25H17.501C18.0972 24.9999 18.6709 24.7727 19.1054 24.3644C19.54 23.9562 19.8026 23.3978 19.8398 22.8027L20.875 6.25001H2.125L3.16016 22.8027Z" fill="#A5A5A5"/>
</svg>
