<svg width="67" height="80" viewBox="0 0 67 80" fill="none" xmlns="http://www.w3.org/2000/svg">
<style>
  @media (prefers-color-scheme: dark) {
    .outerArea {
      fill: #FFFFFF;
    }

    .innerLines {
      fill: #000000;
      stroke: #000000;
    }
  }
</style>
<path class='outerArea' d="M64.7014 71.0807L64.7809 71.3854L65.0208 71.5896C65.6083 72.0898 66 72.8754 66 73.75V76.25C66 77.8176 64.8067 79 63.4107 79H14.3571C7.02392 79 1 72.7707 1 65V15C1 7.2293 7.02392 1 14.3571 1H63.4107C64.8067 1 66 2.18243 66 3.75V56.25C66 57.1268 65.6071 57.9069 65.0294 58.3875L64.7825 58.5929L64.7014 58.9037C64.352 60.2422 64.1979 62.6723 64.1979 64.9922C64.1979 67.3121 64.352 69.7422 64.7014 71.0807ZM57.0397 71H58.1517L58.0341 69.8942C57.7575 67.2927 57.7575 62.7073 58.0341 60.1058L58.1517 59H57.0397H35.6984H14.3571C11.1319 59 8.57143 61.7394 8.57143 65C8.57143 68.2762 11.1169 71 14.3571 71H57.0397ZM20.0402 19C18.9535 19 18.1429 19.9113 18.1429 20.9375V24.0625C18.1429 25.0887 18.9535 26 20.0402 26H51.7455C52.8322 26 53.6429 25.0887 53.6429 24.0625V20.9375C53.6429 19.9113 52.8322 19 51.7455 19H20.0402ZM20.0402 29C18.9535 29 18.1429 29.9113 18.1429 30.9375V34.0625C18.1429 35.0887 18.9535 36 20.0402 36H51.7455C52.8322 36 53.6429 35.0887 53.6429 34.0625V30.9375C53.6429 29.9113 52.8322 29 51.7455 29H20.0402Z" fill="black" stroke="black" stroke-width="2"/>
<path class='innerLines' d="M19.098 20.9375C19.098 20.4219 19.5029 20 19.9978 20C32.4139 20 39.3751 20 51.7911 20C52.286 20 52.6909 20.4219 52.6909 20.9375V24.0625C52.6909 24.5781 52.286 25 51.7911 25H35.8945C29.6864 25 26.2058 25 19.9978 25C19.5029 25 19.098 24.5781 19.098 24.0625C19.098 22.8421 19.098 22.1579 19.098 20.9375ZM19.098 30.9375C19.098 30.4219 19.5029 30 19.9978 30H51.7911C52.286 30 52.6909 30.4219 52.6909 30.9375V34.0625C52.6909 34.5781 52.286 35 51.7911 35H19.9978C19.5029 35 19.098 34.5781 19.098 34.0625V30.9375ZM57.1 70H14.299C11.6445 70 9.5 67.7656 9.5 65C9.5 62.25 11.6595 60 14.299 60H35.6995H57.1C56.8151 62.6719 56.8151 67.3281 57.1 70Z" fill="white"/>
</svg>
